<?xml version="1.0" encoding="utf-8"?>
<!-- Generator: Adobe Illustrator 27.2.0, SVG Export Plug-In . SVG Version: 6.00 Build 0)  -->
<svg version="1.1" id="Capa_1" xmlns="http://www.w3.org/2000/svg" xmlns:xlink="http://www.w3.org/1999/xlink" x="0px" y="0px"
	 viewBox="0 0 300 300" style="enable-background:new 0 0 300 300;" xml:space="preserve">
<style type="text/css">
	.st0{fill:#7BD8CF;}
	.st1{fill:#16937B;}
	.st2{fill:#1FAA8F;}
</style>
<g>
	<path class="st0" d="M125.9,164.3c-1.7-4.6-3.4-9.3-5.1-13.9c-0.7-1.9-0.1-3.5,1.6-4.3c1.6-0.8,3.3-0.2,4.3,1.6
		c0.3,0.5,0.5,1.1,0.8,1.7c5.1,12.1,8.9,24.5,7.5,38.1c12.1,1.3,24.3,1.3,36.7-0.3c-1.1-8-0.1-15.5,2.1-22.9
		c1.7-5.6,3.8-11,5.9-16.4c0.8-2.1,2.7-2.8,4.5-2c1.8,0.8,2.4,2.6,1.5,4.7c-0.5,1.3-1.2,2.6-1.7,4c-1.3,3.5-2.5,7-3.9,11
		c7.6-3,14.5-5.8,21.8-8.7c-2.8-7.4-5.2-14.8-8.4-21.8c-2.3-5-6.7-8-12.2-8.8c-3.2-0.5-6.4-0.2-9.6-0.4c-2.1-0.1-3.6,0.5-5.2,1.8
		c-7.2,5.9-16.9,6.8-24.2,1.4c-3.7-2.7-7.3-3.5-11.6-3.2c-0.5,0-1.1,0-1.6,0c-8.1,0-14.5,4.5-17.4,12.1c-2.1,5.8-4.2,11.6-6.3,17.4
		c-0.2,0.5-0.3,1-0.4,1.7c7.1,2.8,14,5.6,21.2,8.5C126,164.9,126,164.6,125.9,164.3z M150.7,137.2c10.5-1.3,18.9,6.1,21.7,15.8
		c1.6,5.4,0.7,11.5-1.4,16.6c-1.5,3.4-3.5,6.7-6.7,8.7c-0.3,0.2-0.7,0.1-0.9-0.2c-0.2-0.3-0.1-0.6,0.1-0.8c1-1.3,1.8-2.7,2.5-4.2
		c1.9-4.5,2.9-9.5,2.9-14.3c0-3-1-6.1-2.6-8.8c-3.1-5.6-8.7-8.9-15.1-8.1c-6.4,0.6-10.7,5.4-11.9,11.6c-1.4,6.1,0.1,12.8,4.2,17.6
		c2.1,2.5,5.1,4.8,8.5,4.8c1.9-0.6,3.4-2.6,4.5-4.4c3.3-5.4,3.8-12.3,1.3-18.1c-0.5-1.1-1-2.1-1.7-3.2c-0.3-0.6-0.9-1.1-1.5-1.1
		c-1,0.1-1.1,1-1.6,2.1c-1.8,5.4-2.1,11.4-0.8,16.9c0.6,2.2-2.4,3-3.1,0.9c-1.5-5.3-1.5-10.9-0.4-16.3c0.5-2,0.9-3.9,2.2-5.7
		c1.8-2.3,5.5-2.3,7.5-0.3c6.4,7.3,6.9,18.8,2,27.1c-2.1,3.5-5.6,7.6-10.4,6.5c-7.9-1.5-13.3-9-15.2-16.4
		C132.2,152.2,137.5,138.5,150.7,137.2z"/>
	<path class="st0" d="M124.2,171.9c-1.6,5.2-3.2,10.3-4.6,15.5c-1.2,4.6-2.6,8.9-8.3,10.5c3.9,1.5,7.2,2.7,10.9,4
		c1.4-3.2,2.6-6.3,4-9.3c2.5-5.3,2.8-10.9,2.1-16.5C127.9,172.8,127.9,172.8,124.2,171.9z"/>
	<path class="st0" d="M87.3,189.3c1,0.2,2,0.5,3,0.6c5.7,0.6,11.5,1.1,17.2,1.7c3,0.3,4.1-0.4,4.9-3.4c1.7-5.7,3.4-11.4,5.1-17.1
		c0.2-0.6,0.3-1.2,0.4-1.8c-2.4-1-4.7-1.9-6.9-2.8c-0.2,0.2-0.3,0.3-0.3,0.4c-1,3.3-1.9,6.6-2.9,9.9c-1.1,3.6-3.7,5.5-7.1,5.2
		c-7.4-0.5-14.8-1.1-22.1-1.8c-8.4-0.7-16.2,0.9-23.6,6.4c3.2,0.3,5.8,0.7,8.4,0.8c5.9,0.4,11.7,0.6,17.6,1
		C83.1,188.5,85.2,189,87.3,189.3z"/>
	<path class="st0" d="M147.3,115.8c-0.8,2.2-2,4.3-3.1,6.5c4.7,4.6,13.3,4.6,17.6,0.3c-1.7-4.7-3.4-9.1-5-13.6c-2.4,0-5,0-7.6,0
		C148.6,111.3,148.2,113.6,147.3,115.8z"/>
	<path class="st0" d="M155.4,67.3c4.4-3,7.6-2.5,10.7,1.7c0.9,1,1.9,1.9,3.1,3.2c-0.9-7.6-9.8-13.1-18.2-12
		c-7.8,1.1-14.5,7.3-13.7,12.9C143.8,72.6,149.9,71,155.4,67.3z"/>
	<path class="st0" d="M162.9,99.9c4.1-2.4,6.6-6,6.8-10.9c0.2-5.1,0.1-3.2,0-8.3c0-0.5-0.2-1.3-0.5-1.4c-3.9-1.4-6.6-4.1-8.6-6.9
		c-4,1.8-7.6,3.8-11.4,5c-4,1.3-8.2,1.9-12.4,2.8c0,4.7,0,2.6,0,7.4c-0.1,5.3,2.2,9.3,6.6,12.1C149.8,103.7,156.4,103.7,162.9,99.9z
		"/>
	<path class="st0" d="M163.3,55.6c0.7-3.7,0.1-5.6-2.5-6.9c-5.1-2.5-10.3-2.5-15.4,0.1c-2.5,1.3-3.2,3.9-2,6.7
		C150,52.8,156.5,52.9,163.3,55.6z"/>
	<path class="st0" d="M220.2,196.1c-17,8.2-34,16.5-51,24.7c-3.2,1.6-6.4,3.2-9.7,4.8c1.3,2.8,2.5,5.5,3.6,8.2
		c0.6,1.5,1.3,1.6,2.8,1.2c15-4.5,30-8.9,45-13.4c5.8-1.7,11.7-3.4,17.5-5.3c6.2-2,9.2-8.6,6.8-14.6
		C232.8,195.7,226.1,193.3,220.2,196.1z"/>
	<path class="st0" d="M234.1,180.3c-9.2,0.2-18.3,1.1-27.5,1.8c-4.4,0.3-6.8-1.3-8.1-5.5c-1-3.3-1.9-6.6-2.9-10
		c-2.5,1-4.8,1.9-7.2,2.9c0.2,0.9,0.4,1.5,0.6,2.2c0.2,0.7,0.4,1.3,0.5,2c0.4,2-0.6,3.5-2.4,4c-1.6,0.4-3.2-0.4-3.9-2.2
		c-0.4-1.1-0.7-2.2-1.3-3.9c-1.4,1.1-3.4,1.9-3.5,2.9c-0.4,3.8-1,7.8-0.2,11.4c1.2,5.2,3.6,10.2,5.5,15.2c0.6,1.5,1.4,2.9,2.2,4.4
		c4.7-2.3,9.3-4.5,13.8-6.7c-0.5-0.4-1-0.4-1.4-0.4c-5.4,0.2-9-2.5-10.6-7.6c-0.6-2-1.2-3.9-1.7-5.9c-0.6-2.2,0.3-3.8,2.2-4.4
		c1.8-0.5,3.4,0.4,4,2.5c0.6,2,1.2,3.9,1.8,5.9c0.7,2.3,1.8,3.1,4.3,2.9c4.8-0.4,9.7-1.1,14.5-1.4c5.4-0.3,10.6-2.1,16.2-1.8
		c7.4,0.2,14.7-1.3,22.5-2C245.9,182.6,240.3,180.1,234.1,180.3z"/>
	<path class="st0" d="M154.4,220.6c-1.1-0.4-1.8-0.7-2.5-1c-3.4-1.2-6.9-2.4-10.2-3.8c-1-0.4-2.1-1.5-2.4-2.5
		c-0.3-0.9,0.2-2.5,0.9-3.1c0.9-0.6,2.5-0.9,3.5-0.6c5.8,1.9,11.5,4.1,17.2,6.1c1,0.3,2.4,0.3,3.4-0.2c4.7-2.1,9.4-4.5,14.1-6.8
		c0.5-0.3,1-0.6,1.4-0.8c-1.9-4.2-3.8-8.3-5.5-12.4c-0.7-1.7-1.5-2.2-3.3-2c-4.6,0.5-9.3,1.1-13.9,1.1c-7.5-0.1-14.9-0.7-22.4-1.1
		c-1,0-2-0.4-2.5,1c-1,3.4-2.4,6.3-3.8,9.6c0.9,0.3,1.6,0.6,2.2,0.8c0.8,0.3,1.6,0.5,2.3,0.9c2,0.8,2.8,2.5,2.2,4.2
		c-0.6,1.9-2.4,2.6-4.5,1.9c-2.6-0.9-5.2-1.8-7.7-2.8c-12.6-4.5-25.1-9.1-37.7-13.6c-6-2.2-12.4,1-14.3,6.9
		c-1.9,5.8,1.3,11.9,7.4,13.9c0.9,0.3,1.8,0.5,2.8,0.8c16.3,4.7,32.6,9.4,49,14c0.9,0.2,2,0.6,2.7,0.2c4.4-2.1,8.7-4.3,13-6.5
		C148.5,223.4,151.3,222.1,154.4,220.6z"/>
	<path class="st0" d="M253.2,47.6C225.8,20.1,189.2,5,150.4,5C111.6,5,75.1,20.1,47.6,47.6S5,111.5,5,150.4
		c0,38.9,15.1,75.4,42.6,102.9c27.4,27.5,63.9,42.6,102.8,42.6c38.9,0,75.4-15.1,102.8-42.7c27.5-27.4,42.6-64,42.6-102.8
		S280.7,75.1,253.2,47.6z M252.2,193.4c-3.5,0.4-7.1,0.7-10.6,1c-0.8,0.1-1.6,0.2-2.2,0.3c1.1,2.5,2.5,4.8,3.1,7.4
		c2.3,9-2.7,18-11.7,20.8c-14.2,4.4-28.5,8.5-42.7,12.8c-8.6,2.6-17.2,5.1-25.8,7.6c-2.3,0.7-4.6,1-7,1.5c-6.7-0.3-13-0.3-19.4-0.3
		c-2.7-1.1-4.8-2.8-5.6-5.8c-0.1-0.5-1.1-0.9-1.7-1.1c-17-4.9-33.9-9.7-50.9-14.6c-11.3-3.2-16.8-14.4-12-24.7
		c0.6-1.2,1.4-2.3,2.3-3.8c-0.9-0.1-1.6-0.3-2.4-0.3c-3.5-0.3-7.1-0.6-10.6-1c-3.6-0.4-5.7-2.2-6.4-5.2c-0.7-2.9,0.5-5.4,3.5-7.5
		c8.4-5.8,17.6-7.9,27.7-6.8c6.8,0.7,13.7,1.1,20.5,1.6c0.5,0,1.4-0.4,1.5-0.8c1.1-3.5,2-7,3-10.5c-0.6-0.3-1.1-0.5-1.6-0.7
		c-4.4-1.8-5.8-5-4.3-9.4c2.2-6.1,4.4-12.3,6.7-18.4c3.8-10.2,12.7-16.3,23.6-16.4c2.3,0,4.5-0.1,6.8,0c1.8,0.1,3.2-0.6,3.8-2.2
		c1.1-2.9,2-5.9,2.8-9c0.1-0.5-0.7-1.5-1.3-1.8c-5.9-3.5-9.8-8.4-10.7-15.2c-0.4-2.6-0.2-5.2-0.2-7.8c0-4.9,0.1-2.9,0-7.8
		c-0.1-5.9,2-10.8,6.2-15c0.4-0.4,0.9-1.3,0.8-1.8c-3.4-10.7,3.8-16.4,11.3-17.7c0.5-0.1,1-0.3,1.6-0.4c2.2,0,4.4,0,6.6,0
		c1.9,0.6,3.9,0.9,5.7,1.7c6.7,2.7,9.6,8.9,7.3,15.8c-0.4,1.1-0.2,1.7,0.6,2.5c4.2,4.1,6.3,9,6.2,14.9c-0.1,6.3-0.1,5.6,0,12
		c0.1,8.4-3.7,14.6-10.9,18.8c-1.4,0.8-1.9,1.6-1.4,3.1c0.9,2.6,1.7,5.3,2.8,7.9c0.6,1.6,2,2.2,3.8,2.2c4.4,0.1,9-0.1,13.3,0.9
		c7.9,1.7,13.5,6.8,16.6,14.4c2.7,6.6,5,13.4,7.4,20.1c1.3,3.6-0.3,6.9-3.7,8.5c-0.7,0.3-1.5,0.7-2.3,1c1,3.6,2,7.1,3,10.5
		c0.1,0.4,1,0.8,1.5,0.8c6.8-0.5,13.7-0.8,20.5-1.6c10.2-1.1,19.5,1.1,27.9,7c2.7,1.9,3.9,4.4,3.3,7.2
		C257.8,191.1,255.7,193,252.2,193.4z"/>
	<path class="st0" d="M144.9,232.6c-2.4,1.2-4.8,2.3-7.2,3.5c-0.4,0.2-0.6,0.8-0.9,1.1c0.5,0.2,0.9,0.5,1.4,0.6c0.9,0.1,1.8,0,2.7,0
		c5.4,0,10.8-0.1,16.7-0.1c-1.6-3.5-2.8-6.3-4.1-9.2C150.5,230,147.7,231.3,144.9,232.6z"/>
</g>
<g>
	<path class="st1" d="M508.4,295.9c-38.9,0-75.4-15.1-102.8-42.6c-27.5-27.5-42.6-64-42.6-102.9s15.1-75.3,42.6-102.8
		S469.6,5,508.4,5s75.4,15.1,102.8,42.6c27.5,27.5,42.6,64,42.6,102.8s-15.1,75.4-42.6,102.8C583.8,280.8,547.3,295.9,508.4,295.9z
		 M508.4,14.3c-75,0-136.1,61.1-136.1,136.1s61.1,136.1,136.1,136.1s136.1-61.1,136.1-136.1S583.5,14.3,508.4,14.3z"/>
</g>
<g>
	<path class="st1" d="M637.6,199c-12.9-21.4-41.4-38.5-78.4-46.9l2.1-9.1c39.4,9,70.1,27.7,84.3,51.2L637.6,199z"/>
</g>
<g>
	<path class="st1" d="M380.9,197.3l-7.8-5.1c15.7-24.2,48.7-42.7,90.3-50.8l1.8,9.2C426.5,158.1,395,175.6,380.9,197.3z"/>
</g>
<g>
	<g>
		<path class="st2" d="M507.1,169c-1.5-5.3-1.5-10.9-0.4-16.3c0.5-2,0.9-3.9,2.2-5.7c1.8-2.3,5.5-2.3,7.5-0.3
			c6.4,7.3,6.9,18.8,2,27.1c-2.1,3.5-5.6,7.6-10.4,6.5c-7.9-1.5-13.3-9-15.2-16.4c-2.6-11.7,2.7-25.4,15.9-26.7
			c10.5-1.3,18.9,6.1,21.7,15.8c1.6,5.4,0.7,11.5-1.4,16.6c-1.5,3.4-3.5,6.7-6.7,8.7c-0.3,0.2-0.7,0.1-0.9-0.2s-0.1-0.6,0.1-0.8
			c1-1.3,1.8-2.7,2.5-4.2c1.9-4.5,2.9-9.5,2.9-14.3c0-3-1-6.1-2.6-8.8c-3.1-5.6-8.7-8.9-15.1-8.1c-6.4,0.6-10.7,5.4-11.9,11.6
			c-1.4,6.1,0.1,12.8,4.2,17.6c2.1,2.5,5.1,4.8,8.5,4.8c1.9-0.6,3.4-2.6,4.5-4.4c3.3-5.4,3.8-12.3,1.3-18.1c-0.5-1.1-1-2.1-1.7-3.2
			c-0.3-0.6-0.9-1.1-1.5-1.1c-1,0.1-1.1,1-1.6,2.1c-1.8,5.4-2.1,11.4-0.8,16.9C510.8,170.3,507.8,171.1,507.1,169L507.1,169z"/>
	</g>
	<g>
		<g>
			<path class="st2" d="M493.9,244.5c-2.7-1.1-4.8-2.8-5.6-5.8c-0.1-0.5-1.1-0.9-1.7-1.1c-17-4.9-33.9-9.7-50.9-14.6
				c-11.3-3.2-16.8-14.4-12-24.7c0.6-1.2,1.4-2.3,2.3-3.8c-0.9-0.1-1.6-0.3-2.4-0.3c-3.5-0.3-7.1-0.6-10.6-1
				c-3.6-0.4-5.7-2.2-6.4-5.2c-0.7-2.9,0.5-5.4,3.5-7.5c8.4-5.8,17.6-7.9,27.7-6.8c6.8,0.7,13.7,1.1,20.5,1.6c0.5,0,1.4-0.4,1.5-0.8
				c1.1-3.5,2-7,3-10.5c-0.6-0.3-1.1-0.5-1.6-0.7c-4.4-1.8-5.8-5-4.3-9.4c2.2-6.1,4.4-12.3,6.7-18.4c3.8-10.2,12.7-16.3,23.6-16.4
				c2.3,0,4.5-0.1,6.8,0c1.8,0.1,3.2-0.6,3.8-2.2c1.1-2.9,2-5.9,2.8-9c0.1-0.5-0.7-1.5-1.3-1.8c-5.9-3.5-9.8-8.4-10.7-15.2
				c-0.4-2.6-0.2-5.2-0.2-7.8c0-4.9,0.1-2.9,0-7.8c-0.1-5.9,2-10.8,6.2-15c0.4-0.4,0.9-1.3,0.8-1.8c-3.4-10.7,3.8-16.4,11.3-17.7
				c0.5-0.1,1-0.3,1.6-0.4c2.2,0,4.4,0,6.6,0c1.9,0.6,3.9,0.9,5.7,1.7c6.7,2.7,9.6,8.9,7.3,15.8c-0.4,1.1-0.2,1.7,0.6,2.5
				c4.2,4.1,6.3,9,6.2,14.9c-0.1,6.3-0.1,5.6,0,12c0.1,8.4-3.7,14.6-10.9,18.8c-1.4,0.8-1.9,1.6-1.4,3.1c0.9,2.6,1.7,5.3,2.8,7.9
				c0.6,1.6,2,2.2,3.8,2.2c4.4,0.1,9-0.1,13.3,0.9c7.9,1.7,13.5,6.8,16.6,14.4c2.7,6.6,5,13.4,7.4,20.1c1.3,3.6-0.3,6.9-3.7,8.5
				c-0.7,0.3-1.5,0.7-2.3,1c1,3.6,2,7.1,3,10.5c0.1,0.4,1,0.8,1.5,0.8c6.8-0.5,13.7-0.8,20.5-1.6c10.2-1.1,19.5,1.1,27.9,7
				c2.7,1.9,3.9,4.4,3.3,7.2c-0.7,3-2.8,4.9-6.3,5.3c-3.5,0.4-7.1,0.7-10.6,1c-0.8,0.1-1.6,0.2-2.2,0.3c1.1,2.5,2.5,4.8,3.1,7.4
				c2.3,9-2.7,18-11.7,20.8c-14.2,4.4-28.5,8.5-42.7,12.8c-8.6,2.6-17.2,5.1-25.8,7.6c-2.3,0.7-4.6,1-7,1.5
				C506.6,244.5,500.3,244.5,493.9,244.5z M529.7,187.2c-1.1-8-0.1-15.5,2.1-22.9c1.7-5.6,3.8-11,5.9-16.4c0.8-2.1,2.7-2.8,4.5-2
				s2.4,2.6,1.5,4.7c-0.5,1.3-1.2,2.6-1.7,4c-1.3,3.5-2.5,7-3.9,11c7.6-3,14.5-5.8,21.8-8.7c-2.8-7.4-5.2-14.8-8.4-21.8
				c-2.3-5-6.7-8-12.2-8.8c-3.2-0.5-6.4-0.2-9.6-0.4c-2.1-0.1-3.6,0.5-5.2,1.8c-7.2,5.9-16.9,6.8-24.2,1.4
				c-3.7-2.7-7.3-3.5-11.6-3.2c-0.5,0-1.1,0-1.6,0c-8.1,0-14.5,4.5-17.4,12.1c-2.1,5.8-4.2,11.6-6.3,17.4c-0.2,0.5-0.3,1-0.4,1.7
				c7.1,2.8,14,5.6,21.2,8.5c-0.2-0.7-0.2-1-0.3-1.3c-1.7-4.6-3.4-9.3-5.1-13.9c-0.7-1.9-0.1-3.5,1.6-4.3c1.6-0.8,3.3-0.2,4.3,1.6
				c0.3,0.5,0.5,1.1,0.8,1.7c5.1,12.1,8.9,24.5,7.5,38.1C505.1,188.8,517.3,188.8,529.7,187.2z M486.4,204.1
				c0.9,0.3,1.6,0.6,2.2,0.8c0.8,0.3,1.6,0.5,2.3,0.9c2,0.8,2.8,2.5,2.2,4.2c-0.6,1.9-2.4,2.6-4.5,1.9c-2.6-0.9-5.2-1.8-7.7-2.8
				c-12.6-4.5-25.1-9.1-37.7-13.6c-6-2.2-12.4,1-14.3,6.9c-1.9,5.8,1.3,11.9,7.4,13.9c0.9,0.3,1.8,0.5,2.8,0.8
				c16.3,4.7,32.6,9.4,49,14c0.9,0.2,2,0.6,2.7,0.2c4.4-2.1,8.7-4.3,13-6.5c2.7-1.4,5.5-2.7,8.6-4.2c-1.1-0.4-1.8-0.7-2.5-1
				c-3.4-1.2-6.9-2.4-10.2-3.8c-1-0.4-2.1-1.5-2.4-2.5c-0.3-0.9,0.2-2.5,0.9-3.1c0.9-0.6,2.5-0.9,3.5-0.6c5.8,1.9,11.5,4.1,17.2,6.1
				c1,0.3,2.4,0.3,3.4-0.2c4.7-2.1,9.4-4.5,14.1-6.8c0.5-0.3,1-0.6,1.4-0.8c-1.9-4.2-3.8-8.3-5.5-12.4c-0.7-1.7-1.5-2.2-3.3-2
				c-4.6,0.5-9.3,1.1-13.9,1.1c-7.5-0.1-14.9-0.7-22.4-1.1c-1,0-2-0.4-2.5,1C489.2,197.9,487.8,200.8,486.4,204.1z M517.5,225.6
				c1.3,2.8,2.5,5.5,3.6,8.2c0.6,1.5,1.3,1.6,2.8,1.2c15-4.5,30-8.9,45-13.4c5.8-1.7,11.7-3.4,17.5-5.3c6.2-2,9.2-8.6,6.8-14.6
				s-9.1-8.4-15-5.6c-17,8.2-34,16.5-51,24.7C524,222.4,520.8,224,517.5,225.6z M494.8,80.2c0,4.7,0,2.6,0,7.4
				c-0.1,5.3,2.2,9.3,6.6,12.1c6.4,4,13,4,19.5,0.2c4.1-2.4,6.6-6,6.8-10.9c0.2-5.1,0.1-3.2,0-8.3c0-0.5-0.2-1.3-0.5-1.4
				c-3.9-1.4-6.6-4.1-8.6-6.9c-4,1.8-7.6,3.8-11.4,5C503.2,78.7,499,79.3,494.8,80.2z M609.5,186.6c-5.6-4-11.2-6.5-17.4-6.3
				c-9.2,0.2-18.3,1.1-27.5,1.8c-4.4,0.3-6.8-1.3-8.1-5.5c-1-3.3-1.9-6.6-2.9-10c-2.5,1-4.8,1.9-7.2,2.9c0.2,0.9,0.4,1.5,0.6,2.2
				s0.4,1.3,0.5,2c0.4,2-0.6,3.5-2.4,4c-1.6,0.4-3.2-0.4-3.9-2.2c-0.4-1.1-0.7-2.2-1.3-3.9c-1.4,1.1-3.4,1.9-3.5,2.9
				c-0.4,3.8-1,7.8-0.2,11.4c1.2,5.2,3.6,10.2,5.5,15.2c0.6,1.5,1.4,2.9,2.2,4.4c4.7-2.3,9.3-4.5,13.8-6.7c-0.5-0.4-1-0.4-1.4-0.4
				c-5.4,0.2-9-2.5-10.6-7.6c-0.6-2-1.2-3.9-1.7-5.9c-0.6-2.2,0.3-3.8,2.2-4.4c1.8-0.5,3.4,0.4,4,2.5c0.6,2,1.2,3.9,1.8,5.9
				c0.7,2.3,1.8,3.1,4.3,2.9c4.8-0.4,9.7-1.1,14.5-1.4c5.4-0.3,10.6-2.1,16.2-1.8C594.4,188.8,601.7,187.3,609.5,186.6z M413,186.6
				c3.2,0.3,5.8,0.7,8.4,0.8c5.9,0.4,11.7,0.6,17.6,1c2.1,0.1,4.2,0.6,6.3,0.9c1,0.2,2,0.5,3,0.6c5.7,0.6,11.5,1.1,17.2,1.7
				c3,0.3,4.1-0.4,4.9-3.4c1.7-5.7,3.4-11.4,5.1-17.1c0.2-0.6,0.3-1.2,0.4-1.8c-2.4-1-4.7-1.9-6.9-2.8c-0.2,0.2-0.3,0.3-0.3,0.4
				c-1,3.3-1.9,6.6-2.9,9.9c-1.1,3.6-3.7,5.5-7.1,5.2c-7.4-0.5-14.8-1.1-22.1-1.8C428.2,179.5,420.4,181.1,413,186.6z M480.2,201.9
				c1.4-3.2,2.6-6.3,4-9.3c2.5-5.3,2.8-10.9,2.1-16.5c-0.4-3.3-0.4-3.3-4.1-4.2c-1.6,5.2-3.2,10.3-4.6,15.5
				c-1.2,4.6-2.6,8.9-8.3,10.5C473.2,199.4,476.5,200.6,480.2,201.9z M527.2,72.2c-0.9-7.6-9.8-13.1-18.2-12
				c-7.8,1.1-14.5,7.3-13.7,12.9c6.5-0.5,12.6-2.1,18.1-5.8c4.4-3,7.6-2.5,10.7,1.7C525,70,526,70.9,527.2,72.2z M519.8,122.6
				c-1.7-4.7-3.4-9.1-5-13.6c-2.4,0-5,0-7.6,0c-0.6,2.3-1,4.6-1.9,6.8c-0.8,2.2-2,4.3-3.1,6.5C506.9,126.9,515.5,126.9,519.8,122.6z
				 M521.3,55.6c0.7-3.7,0.1-5.6-2.5-6.9c-5.1-2.5-10.3-2.5-15.4,0.1c-2.5,1.3-3.2,3.9-2,6.7C508,52.8,514.5,52.9,521.3,55.6z
				 M515.6,237.7c-1.6-3.5-2.8-6.3-4.1-9.2c-3,1.5-5.8,2.8-8.6,4.1c-2.4,1.2-4.8,2.3-7.2,3.5c-0.4,0.2-0.6,0.8-0.9,1.1
				c0.5,0.2,0.9,0.5,1.4,0.6c0.9,0.1,1.8,0,2.7,0C504.3,237.8,509.7,237.7,515.6,237.7z"/>
		</g>
	</g>
</g>
</svg>
