<?xml version="1.0" encoding="utf-8"?>
<!-- Generator: Adobe Illustrator 27.2.0, SVG Export Plug-In . SVG Version: 6.00 Build 0)  -->
<svg version="1.1" id="Capa_1" xmlns="http://www.w3.org/2000/svg" xmlns:xlink="http://www.w3.org/1999/xlink" x="0px" y="0px"
	 viewBox="0 0 300 300" style="enable-background:new 0 0 300 300;" xml:space="preserve">
<style type="text/css">
	.st0{fill:#FFFFFF;}
	.st1{fill:#16937B;}
	.st2{fill:#1FAA8F;}
</style>
<g>
	<path class="st0" d="M-236.1,164.3c-1.7-4.6-3.4-9.3-5.1-13.9c-0.7-1.9-0.1-3.5,1.6-4.3c1.6-0.8,3.3-0.2,4.3,1.6
		c0.3,0.5,0.5,1.1,0.8,1.7c5.1,12.1,8.9,24.5,7.5,38.1c12.1,1.3,24.3,1.3,36.7-0.3c-1.1-8-0.1-15.5,2.1-22.9
		c1.7-5.6,3.8-11,5.9-16.4c0.8-2.1,2.7-2.8,4.5-2s2.4,2.6,1.5,4.7c-0.5,1.3-1.2,2.6-1.7,4c-1.3,3.5-2.5,7-3.9,11
		c7.6-3,14.5-5.8,21.8-8.7c-2.8-7.4-5.2-14.8-8.4-21.8c-2.3-5-6.7-8-12.2-8.8c-3.2-0.5-6.4-0.2-9.6-0.4c-2.1-0.1-3.6,0.5-5.2,1.8
		c-7.2,5.9-16.9,6.8-24.2,1.4c-3.7-2.7-7.3-3.5-11.6-3.2c-0.5,0-1.1,0-1.6,0c-8.1,0-14.5,4.5-17.4,12.1c-2.1,5.8-4.2,11.6-6.3,17.4
		c-0.2,0.5-0.3,1-0.4,1.7c7.1,2.8,14,5.6,21.2,8.5C-236,164.9-236,164.6-236.1,164.3z M-211.3,137.2c10.5-1.3,18.9,6.1,21.7,15.8
		c1.6,5.4,0.7,11.5-1.4,16.6c-1.5,3.4-3.5,6.7-6.7,8.7c-0.3,0.2-0.7,0.1-0.9-0.2s-0.1-0.6,0.1-0.8c1-1.3,1.8-2.7,2.5-4.2
		c1.9-4.5,2.9-9.5,2.9-14.3c0-3-1-6.1-2.6-8.8c-3.1-5.6-8.7-8.9-15.1-8.1c-6.4,0.6-10.7,5.4-11.9,11.6c-1.4,6.1,0.1,12.8,4.2,17.6
		c2.1,2.5,5.1,4.8,8.5,4.8c1.9-0.6,3.4-2.6,4.5-4.4c3.3-5.4,3.8-12.3,1.3-18.1c-0.5-1.1-1-2.1-1.7-3.2c-0.3-0.6-0.9-1.1-1.5-1.1
		c-1,0.1-1.1,1-1.6,2.1c-1.8,5.4-2.1,11.4-0.8,16.9c0.6,2.2-2.4,3-3.1,0.9c-1.5-5.3-1.5-10.9-0.4-16.3c0.5-2,0.9-3.9,2.2-5.7
		c1.8-2.3,5.5-2.3,7.5-0.3c6.4,7.3,6.9,18.8,2,27.1c-2.1,3.5-5.6,7.6-10.4,6.5c-7.9-1.5-13.3-9-15.2-16.4
		C-229.8,152.2-224.5,138.5-211.3,137.2z"/>
	<path class="st0" d="M-237.8,171.9c-1.6,5.2-3.2,10.3-4.6,15.5c-1.2,4.6-2.6,8.9-8.3,10.5c3.9,1.5,7.2,2.7,10.9,4
		c1.4-3.2,2.6-6.3,4-9.3c2.5-5.3,2.8-10.9,2.1-16.5C-234.1,172.8-234.1,172.8-237.8,171.9z"/>
	<path class="st0" d="M-274.7,189.3c1,0.2,2,0.5,3,0.6c5.7,0.6,11.5,1.1,17.2,1.7c3,0.3,4.1-0.4,4.9-3.4c1.7-5.7,3.4-11.4,5.1-17.1
		c0.2-0.6,0.3-1.2,0.4-1.8c-2.4-1-4.7-1.9-6.9-2.8c-0.2,0.2-0.3,0.3-0.3,0.4c-1,3.3-1.9,6.6-2.9,9.9c-1.1,3.6-3.7,5.5-7.1,5.2
		c-7.4-0.5-14.8-1.1-22.1-1.8c-8.4-0.7-16.2,0.9-23.6,6.4c3.2,0.3,5.8,0.7,8.4,0.8c5.9,0.4,11.7,0.6,17.6,1
		C-278.9,188.5-276.8,189-274.7,189.3z"/>
	<path class="st0" d="M-214.7,115.8c-0.8,2.2-2,4.3-3.1,6.5c4.7,4.6,13.3,4.6,17.6,0.3c-1.7-4.7-3.4-9.1-5-13.6c-2.4,0-5,0-7.6,0
		C-213.4,111.3-213.8,113.6-214.7,115.8z"/>
	<path class="st0" d="M-206.6,67.3c4.4-3,7.6-2.5,10.7,1.7c0.9,1,1.9,1.9,3.1,3.2c-0.9-7.6-9.8-13.1-18.2-12
		c-7.8,1.1-14.5,7.3-13.7,12.9C-218.2,72.6-212.1,71-206.6,67.3z"/>
	<path class="st0" d="M-199.1,99.9c4.1-2.4,6.6-6,6.8-10.9c0.2-5.1,0.1-3.2,0-8.3c0-0.5-0.2-1.3-0.5-1.4c-3.9-1.4-6.6-4.1-8.6-6.9
		c-4,1.8-7.6,3.8-11.4,5c-4,1.3-8.2,1.9-12.4,2.8c0,4.7,0,2.6,0,7.4c-0.1,5.3,2.2,9.3,6.6,12.1C-212.2,103.7-205.6,103.7-199.1,99.9
		z"/>
	<path class="st0" d="M-198.7,55.6c0.7-3.7,0.1-5.6-2.5-6.9c-5.1-2.5-10.3-2.5-15.4,0.1c-2.5,1.3-3.2,3.9-2,6.7
		C-212,52.8-205.5,52.9-198.7,55.6z"/>
	<path class="st0" d="M-141.8,196.1c-17,8.2-34,16.5-51,24.7c-3.2,1.6-6.4,3.2-9.7,4.8c1.3,2.8,2.5,5.5,3.6,8.2
		c0.6,1.5,1.3,1.6,2.8,1.2c15-4.5,30-8.9,45-13.4c5.8-1.7,11.7-3.4,17.5-5.3c6.2-2,9.2-8.6,6.8-14.6
		C-129.2,195.7-135.9,193.3-141.8,196.1z"/>
	<path class="st0" d="M-127.9,180.3c-9.2,0.2-18.3,1.1-27.5,1.8c-4.4,0.3-6.8-1.3-8.1-5.5c-1-3.3-1.9-6.6-2.9-10
		c-2.5,1-4.8,1.9-7.2,2.9c0.2,0.9,0.4,1.5,0.6,2.2c0.2,0.7,0.4,1.3,0.5,2c0.4,2-0.6,3.5-2.4,4c-1.6,0.4-3.2-0.4-3.9-2.2
		c-0.4-1.1-0.7-2.2-1.3-3.9c-1.4,1.1-3.4,1.9-3.5,2.9c-0.4,3.8-1,7.8-0.2,11.4c1.2,5.2,3.6,10.2,5.5,15.2c0.6,1.5,1.4,2.9,2.2,4.4
		c4.7-2.3,9.3-4.5,13.8-6.7c-0.5-0.4-1-0.4-1.4-0.4c-5.4,0.2-9-2.5-10.6-7.6c-0.6-2-1.2-3.9-1.7-5.9c-0.6-2.2,0.3-3.8,2.2-4.4
		c1.8-0.5,3.4,0.4,4,2.5c0.6,2,1.2,3.9,1.8,5.9c0.7,2.3,1.8,3.1,4.3,2.9c4.8-0.4,9.7-1.1,14.5-1.4c5.4-0.3,10.6-2.1,16.2-1.8
		c7.4,0.2,14.7-1.3,22.5-2C-116.1,182.6-121.7,180.1-127.9,180.3z"/>
	<path class="st0" d="M-207.6,220.6c-1.1-0.4-1.8-0.7-2.5-1c-3.4-1.2-6.9-2.4-10.2-3.8c-1-0.4-2.1-1.5-2.4-2.5
		c-0.3-0.9,0.2-2.5,0.9-3.1c0.9-0.6,2.5-0.9,3.5-0.6c5.8,1.9,11.5,4.1,17.2,6.1c1,0.3,2.4,0.3,3.4-0.2c4.7-2.1,9.4-4.5,14.1-6.8
		c0.5-0.3,1-0.6,1.4-0.8c-1.9-4.2-3.8-8.3-5.5-12.4c-0.7-1.7-1.5-2.2-3.3-2c-4.6,0.5-9.3,1.1-13.9,1.1c-7.5-0.1-14.9-0.7-22.4-1.1
		c-1,0-2-0.4-2.5,1c-1,3.4-2.4,6.3-3.8,9.6c0.9,0.3,1.6,0.6,2.2,0.8c0.8,0.3,1.6,0.5,2.3,0.9c2,0.8,2.8,2.5,2.2,4.2
		c-0.6,1.9-2.4,2.6-4.5,1.9c-2.6-0.9-5.2-1.8-7.7-2.8c-12.6-4.5-25.1-9.1-37.7-13.6c-6-2.2-12.4,1-14.3,6.9
		c-1.9,5.8,1.3,11.9,7.4,13.9c0.9,0.3,1.8,0.5,2.8,0.8c16.3,4.7,32.6,9.4,49,14c0.9,0.2,2,0.6,2.7,0.2c4.4-2.1,8.7-4.3,13-6.5
		C-213.5,223.4-210.7,222.1-207.6,220.6z"/>
	<path class="st0" d="M-108.8,47.6C-136.2,20.1-172.8,5-211.6,5s-75.3,15.1-102.8,42.6S-357,111.5-357,150.4s15.1,75.4,42.6,102.9
		c27.4,27.5,63.9,42.6,102.8,42.6s75.4-15.1,102.8-42.7c27.5-27.4,42.6-64,42.6-102.8S-81.3,75.1-108.8,47.6z M-109.8,193.4
		c-3.5,0.4-7.1,0.7-10.6,1c-0.8,0.1-1.6,0.2-2.2,0.3c1.1,2.5,2.5,4.8,3.1,7.4c2.3,9-2.7,18-11.7,20.8c-14.2,4.4-28.5,8.5-42.7,12.8
		c-8.6,2.6-17.2,5.1-25.8,7.6c-2.3,0.7-4.6,1-7,1.5c-6.7-0.3-13-0.3-19.4-0.3c-2.7-1.1-4.8-2.8-5.6-5.8c-0.1-0.5-1.1-0.9-1.7-1.1
		c-17-4.9-33.9-9.7-50.9-14.6c-11.3-3.2-16.8-14.4-12-24.7c0.6-1.2,1.4-2.3,2.3-3.8c-0.9-0.1-1.6-0.3-2.4-0.3
		c-3.5-0.3-7.1-0.6-10.6-1c-3.6-0.4-5.7-2.2-6.4-5.2c-0.7-2.9,0.5-5.4,3.5-7.5c8.4-5.8,17.6-7.9,27.7-6.8c6.8,0.7,13.7,1.1,20.5,1.6
		c0.5,0,1.4-0.4,1.5-0.8c1.1-3.5,2-7,3-10.5c-0.6-0.3-1.1-0.5-1.6-0.7c-4.4-1.8-5.8-5-4.3-9.4c2.2-6.1,4.4-12.3,6.7-18.4
		c3.8-10.2,12.7-16.3,23.6-16.4c2.3,0,4.5-0.1,6.8,0c1.8,0.1,3.2-0.6,3.8-2.2c1.1-2.9,2-5.9,2.8-9c0.1-0.5-0.7-1.5-1.3-1.8
		c-5.9-3.5-9.8-8.4-10.7-15.2c-0.4-2.6-0.2-5.2-0.2-7.8c0-4.9,0.1-2.9,0-7.8c-0.1-5.9,2-10.8,6.2-15c0.4-0.4,0.9-1.3,0.8-1.8
		c-3.4-10.7,3.8-16.4,11.3-17.7c0.5-0.1,1-0.3,1.6-0.4c2.2,0,4.4,0,6.6,0c1.9,0.6,3.9,0.9,5.7,1.7c6.7,2.7,9.6,8.9,7.3,15.8
		c-0.4,1.1-0.2,1.7,0.6,2.5c4.2,4.1,6.3,9,6.2,14.9c-0.1,6.3-0.1,5.6,0,12c0.1,8.4-3.7,14.6-10.9,18.8c-1.4,0.8-1.9,1.6-1.4,3.1
		c0.9,2.6,1.7,5.3,2.8,7.9c0.6,1.6,2,2.2,3.8,2.2c4.4,0.1,9-0.1,13.3,0.9c7.9,1.7,13.5,6.8,16.6,14.4c2.7,6.6,5,13.4,7.4,20.1
		c1.3,3.6-0.3,6.9-3.7,8.5c-0.7,0.3-1.5,0.7-2.3,1c1,3.6,2,7.1,3,10.5c0.1,0.4,1,0.8,1.5,0.8c6.8-0.5,13.7-0.8,20.5-1.6
		c10.2-1.1,19.5,1.1,27.9,7c2.7,1.9,3.9,4.4,3.3,7.2C-104.2,191.1-106.3,193-109.8,193.4z"/>
	<path class="st0" d="M-217.1,232.6c-2.4,1.2-4.8,2.3-7.2,3.5c-0.4,0.2-0.6,0.8-0.9,1.1c0.5,0.2,0.9,0.5,1.4,0.6
		c0.9,0.1,1.8,0,2.7,0c5.4,0,10.8-0.1,16.7-0.1c-1.6-3.5-2.8-6.3-4.1-9.2C-211.5,230-214.3,231.3-217.1,232.6z"/>
</g>
<g>
	<path class="st1" d="M508.4,295.9c-38.9,0-75.4-15.1-102.8-42.6c-27.5-27.5-42.6-64-42.6-102.9s15.1-75.3,42.6-102.8
		S469.6,5,508.4,5s75.4,15.1,102.8,42.6c27.5,27.5,42.6,64,42.6,102.8s-15.1,75.4-42.6,102.8C583.8,280.8,547.3,295.9,508.4,295.9z
		 M508.4,14.3c-75,0-136.1,61.1-136.1,136.1s61.1,136.1,136.1,136.1s136.1-61.1,136.1-136.1S583.5,14.3,508.4,14.3z"/>
</g>
<g>
	<path class="st1" d="M637.6,199c-12.9-21.4-41.4-38.5-78.4-46.9l2.1-9.1c39.4,9,70.1,27.7,84.3,51.2L637.6,199z"/>
</g>
<g>
	<path class="st1" d="M380.9,197.3l-7.8-5.1c15.7-24.2,48.7-42.7,90.3-50.8l1.8,9.2C426.5,158.1,395,175.6,380.9,197.3z"/>
</g>
<g>
	<g>
		<path class="st2" d="M507.1,169c-1.5-5.3-1.5-10.9-0.4-16.3c0.5-2,0.9-3.9,2.2-5.7c1.8-2.3,5.5-2.3,7.5-0.3
			c6.4,7.3,6.9,18.8,2,27.1c-2.1,3.5-5.6,7.6-10.4,6.5c-7.9-1.5-13.3-9-15.2-16.4c-2.6-11.7,2.7-25.4,15.9-26.7
			c10.5-1.3,18.9,6.1,21.7,15.8c1.6,5.4,0.7,11.5-1.4,16.6c-1.5,3.4-3.5,6.7-6.7,8.7c-0.3,0.2-0.7,0.1-0.9-0.2s-0.1-0.6,0.1-0.8
			c1-1.3,1.8-2.7,2.5-4.2c1.9-4.5,2.9-9.5,2.9-14.3c0-3-1-6.1-2.6-8.8c-3.1-5.6-8.7-8.9-15.1-8.1c-6.4,0.6-10.7,5.4-11.9,11.6
			c-1.4,6.1,0.1,12.8,4.2,17.6c2.1,2.5,5.1,4.8,8.5,4.8c1.9-0.6,3.4-2.6,4.5-4.4c3.3-5.4,3.8-12.3,1.3-18.1c-0.5-1.1-1-2.1-1.7-3.2
			c-0.3-0.6-0.9-1.1-1.5-1.1c-1,0.1-1.1,1-1.6,2.1c-1.8,5.4-2.1,11.4-0.8,16.9C510.8,170.3,507.8,171.1,507.1,169L507.1,169z"/>
	</g>
	<g>
		<g>
			<path class="st2" d="M493.9,244.5c-2.7-1.1-4.8-2.8-5.6-5.8c-0.1-0.5-1.1-0.9-1.7-1.1c-17-4.9-33.9-9.7-50.9-14.6
				c-11.3-3.2-16.8-14.4-12-24.7c0.6-1.2,1.4-2.3,2.3-3.8c-0.9-0.1-1.6-0.3-2.4-0.3c-3.5-0.3-7.1-0.6-10.6-1
				c-3.6-0.4-5.7-2.2-6.4-5.2c-0.7-2.9,0.5-5.4,3.5-7.5c8.4-5.8,17.6-7.9,27.7-6.8c6.8,0.7,13.7,1.1,20.5,1.6c0.5,0,1.4-0.4,1.5-0.8
				c1.1-3.5,2-7,3-10.5c-0.6-0.3-1.1-0.5-1.6-0.7c-4.4-1.8-5.8-5-4.3-9.4c2.2-6.1,4.4-12.3,6.7-18.4c3.8-10.2,12.7-16.3,23.6-16.4
				c2.3,0,4.5-0.1,6.8,0c1.8,0.1,3.2-0.6,3.8-2.2c1.1-2.9,2-5.9,2.8-9c0.1-0.5-0.7-1.5-1.3-1.8c-5.9-3.5-9.8-8.4-10.7-15.2
				c-0.4-2.6-0.2-5.2-0.2-7.8c0-4.9,0.1-2.9,0-7.8c-0.1-5.9,2-10.8,6.2-15c0.4-0.4,0.9-1.3,0.8-1.8c-3.4-10.7,3.8-16.4,11.3-17.7
				c0.5-0.1,1-0.3,1.6-0.4c2.2,0,4.4,0,6.6,0c1.9,0.6,3.9,0.9,5.7,1.7c6.7,2.7,9.6,8.9,7.3,15.8c-0.4,1.1-0.2,1.7,0.6,2.5
				c4.2,4.1,6.3,9,6.2,14.9c-0.1,6.3-0.1,5.6,0,12c0.1,8.4-3.7,14.6-10.9,18.8c-1.4,0.8-1.9,1.6-1.4,3.1c0.9,2.6,1.7,5.3,2.8,7.9
				c0.6,1.6,2,2.2,3.8,2.2c4.4,0.1,9-0.1,13.3,0.9c7.9,1.7,13.5,6.8,16.6,14.4c2.7,6.6,5,13.4,7.4,20.1c1.3,3.6-0.3,6.9-3.7,8.5
				c-0.7,0.3-1.5,0.7-2.3,1c1,3.6,2,7.1,3,10.5c0.1,0.4,1,0.8,1.5,0.8c6.8-0.5,13.7-0.8,20.5-1.6c10.2-1.1,19.5,1.1,27.9,7
				c2.7,1.9,3.9,4.4,3.3,7.2c-0.7,3-2.8,4.9-6.3,5.3c-3.5,0.4-7.1,0.7-10.6,1c-0.8,0.1-1.6,0.2-2.2,0.3c1.1,2.5,2.5,4.8,3.1,7.4
				c2.3,9-2.7,18-11.7,20.8c-14.2,4.4-28.5,8.5-42.7,12.8c-8.6,2.6-17.2,5.1-25.8,7.6c-2.3,0.7-4.6,1-7,1.5
				C506.6,244.5,500.3,244.5,493.9,244.5z M529.7,187.2c-1.1-8-0.1-15.5,2.1-22.9c1.7-5.6,3.8-11,5.9-16.4c0.8-2.1,2.7-2.8,4.5-2
				s2.4,2.6,1.5,4.7c-0.5,1.3-1.2,2.6-1.7,4c-1.3,3.5-2.5,7-3.9,11c7.6-3,14.5-5.8,21.8-8.7c-2.8-7.4-5.2-14.8-8.4-21.8
				c-2.3-5-6.7-8-12.2-8.8c-3.2-0.5-6.4-0.2-9.6-0.4c-2.1-0.1-3.6,0.5-5.2,1.8c-7.2,5.9-16.9,6.8-24.2,1.4
				c-3.7-2.7-7.3-3.5-11.6-3.2c-0.5,0-1.1,0-1.6,0c-8.1,0-14.5,4.5-17.4,12.1c-2.1,5.8-4.2,11.6-6.3,17.4c-0.2,0.5-0.3,1-0.4,1.7
				c7.1,2.8,14,5.6,21.2,8.5c-0.2-0.7-0.2-1-0.3-1.3c-1.7-4.6-3.4-9.3-5.1-13.9c-0.7-1.9-0.1-3.5,1.6-4.3c1.6-0.8,3.3-0.2,4.3,1.6
				c0.3,0.5,0.5,1.1,0.8,1.7c5.1,12.1,8.9,24.5,7.5,38.1C505.1,188.8,517.3,188.8,529.7,187.2z M486.4,204.1
				c0.9,0.3,1.6,0.6,2.2,0.8c0.8,0.3,1.6,0.5,2.3,0.9c2,0.8,2.8,2.5,2.2,4.2c-0.6,1.9-2.4,2.6-4.5,1.9c-2.6-0.9-5.2-1.8-7.7-2.8
				c-12.6-4.5-25.1-9.1-37.7-13.6c-6-2.2-12.4,1-14.3,6.9c-1.9,5.8,1.3,11.9,7.4,13.9c0.9,0.3,1.8,0.5,2.8,0.8
				c16.3,4.7,32.6,9.4,49,14c0.9,0.2,2,0.6,2.7,0.2c4.4-2.1,8.7-4.3,13-6.5c2.7-1.4,5.5-2.7,8.6-4.2c-1.1-0.4-1.8-0.7-2.5-1
				c-3.4-1.2-6.9-2.4-10.2-3.8c-1-0.4-2.1-1.5-2.4-2.5c-0.3-0.9,0.2-2.5,0.9-3.1c0.9-0.6,2.5-0.9,3.5-0.6c5.8,1.9,11.5,4.1,17.2,6.1
				c1,0.3,2.4,0.3,3.4-0.2c4.7-2.1,9.4-4.5,14.1-6.8c0.5-0.3,1-0.6,1.4-0.8c-1.9-4.2-3.8-8.3-5.5-12.4c-0.7-1.7-1.5-2.2-3.3-2
				c-4.6,0.5-9.3,1.1-13.9,1.1c-7.5-0.1-14.9-0.7-22.4-1.1c-1,0-2-0.4-2.5,1C489.2,197.9,487.8,200.8,486.4,204.1z M517.5,225.6
				c1.3,2.8,2.5,5.5,3.6,8.2c0.6,1.5,1.3,1.6,2.8,1.2c15-4.5,30-8.9,45-13.4c5.8-1.7,11.7-3.4,17.5-5.3c6.2-2,9.2-8.6,6.8-14.6
				s-9.1-8.4-15-5.6c-17,8.2-34,16.5-51,24.7C524,222.4,520.8,224,517.5,225.6z M494.8,80.2c0,4.7,0,2.6,0,7.4
				c-0.1,5.3,2.2,9.3,6.6,12.1c6.4,4,13,4,19.5,0.2c4.1-2.4,6.6-6,6.8-10.9c0.2-5.1,0.1-3.2,0-8.3c0-0.5-0.2-1.3-0.5-1.4
				c-3.9-1.4-6.6-4.1-8.6-6.9c-4,1.8-7.6,3.8-11.4,5C503.2,78.7,499,79.3,494.8,80.2z M609.5,186.6c-5.6-4-11.2-6.5-17.4-6.3
				c-9.2,0.2-18.3,1.1-27.5,1.8c-4.4,0.3-6.8-1.3-8.1-5.5c-1-3.3-1.9-6.6-2.9-10c-2.5,1-4.8,1.9-7.2,2.9c0.2,0.9,0.4,1.5,0.6,2.2
				s0.4,1.3,0.5,2c0.4,2-0.6,3.5-2.4,4c-1.6,0.4-3.2-0.4-3.9-2.2c-0.4-1.1-0.7-2.2-1.3-3.9c-1.4,1.1-3.4,1.9-3.5,2.9
				c-0.4,3.8-1,7.8-0.2,11.4c1.2,5.2,3.6,10.2,5.5,15.2c0.6,1.5,1.4,2.9,2.2,4.4c4.7-2.3,9.3-4.5,13.8-6.7c-0.5-0.4-1-0.4-1.4-0.4
				c-5.4,0.2-9-2.5-10.6-7.6c-0.6-2-1.2-3.9-1.7-5.9c-0.6-2.2,0.3-3.8,2.2-4.4c1.8-0.5,3.4,0.4,4,2.5c0.6,2,1.2,3.9,1.8,5.9
				c0.7,2.3,1.8,3.1,4.3,2.9c4.8-0.4,9.7-1.1,14.5-1.4c5.4-0.3,10.6-2.1,16.2-1.8C594.4,188.8,601.7,187.3,609.5,186.6z M413,186.6
				c3.2,0.3,5.8,0.7,8.4,0.8c5.9,0.4,11.7,0.6,17.6,1c2.1,0.1,4.2,0.6,6.3,0.9c1,0.2,2,0.5,3,0.6c5.7,0.6,11.5,1.1,17.2,1.7
				c3,0.3,4.1-0.4,4.9-3.4c1.7-5.7,3.4-11.4,5.1-17.1c0.2-0.6,0.3-1.2,0.4-1.8c-2.4-1-4.7-1.9-6.9-2.8c-0.2,0.2-0.3,0.3-0.3,0.4
				c-1,3.3-1.9,6.6-2.9,9.9c-1.1,3.6-3.7,5.5-7.1,5.2c-7.4-0.5-14.8-1.1-22.1-1.8C428.2,179.5,420.4,181.1,413,186.6z M480.2,201.9
				c1.4-3.2,2.6-6.3,4-9.3c2.5-5.3,2.8-10.9,2.1-16.5c-0.4-3.3-0.4-3.3-4.1-4.2c-1.6,5.2-3.2,10.3-4.6,15.5
				c-1.2,4.6-2.6,8.9-8.3,10.5C473.2,199.4,476.5,200.6,480.2,201.9z M527.2,72.2c-0.9-7.6-9.8-13.1-18.2-12
				c-7.8,1.1-14.5,7.3-13.7,12.9c6.5-0.5,12.6-2.1,18.1-5.8c4.4-3,7.6-2.5,10.7,1.7C525,70,526,70.9,527.2,72.2z M519.8,122.6
				c-1.7-4.7-3.4-9.1-5-13.6c-2.4,0-5,0-7.6,0c-0.6,2.3-1,4.6-1.9,6.8c-0.8,2.2-2,4.3-3.1,6.5C506.9,126.9,515.5,126.9,519.8,122.6z
				 M521.3,55.6c0.7-3.7,0.1-5.6-2.5-6.9c-5.1-2.5-10.3-2.5-15.4,0.1c-2.5,1.3-3.2,3.9-2,6.7C508,52.8,514.5,52.9,521.3,55.6z
				 M515.6,237.7c-1.6-3.5-2.8-6.3-4.1-9.2c-3,1.5-5.8,2.8-8.6,4.1c-2.4,1.2-4.8,2.3-7.2,3.5c-0.4,0.2-0.6,0.8-0.9,1.1
				c0.5,0.2,0.9,0.5,1.4,0.6c0.9,0.1,1.8,0,2.7,0C504.3,237.8,509.7,237.7,515.6,237.7z"/>
		</g>
	</g>
</g>
<g>
	<g>
		<path class="st0" d="M150,296.3c-80.4,0-145.8-65.4-145.8-145.8S69.6,4.7,150,4.7c80.4,0,145.8,65.4,145.8,145.8
			S230.4,296.3,150,296.3z M150,12.3c-76.2,0-138.2,62-138.2,138.2s62,138.2,138.2,138.2s138.2-62,138.2-138.2S226.2,12.3,150,12.3z
			"/>
	</g>
	<g>
		<path class="st0" d="M253.1,130.7c-12.1,0-21.9,9.8-21.9,21.9c0,12.1,9.8,21.9,21.9,21.9c12.1,0,21.9-9.8,21.9-21.9
			C275,140.5,265.2,130.7,253.1,130.7z M253.1,165.2c-7,0-12.6-5.6-12.6-12.6s5.6-12.6,12.6-12.6c7,0,12.6,5.6,12.6,12.6
			S260.1,165.2,253.1,165.2z"/>
	</g>
	<g>
		<path class="st0" d="M45.9,130.7c-12.1,0-21.9,9.8-21.9,21.9c0,12.1,9.8,21.9,21.9,21.9s21.9-9.8,21.9-21.9
			C67.8,140.5,58,130.7,45.9,130.7z M45.9,165.2c-7,0-12.6-5.6-12.6-12.6S38.9,140,45.9,140s12.6,5.6,12.6,12.6
			S52.9,165.2,45.9,165.2z"/>
	</g>
	<g>
		<g>
			<path class="st0" d="M130.6,47.1c0,10.7,8.6,19.3,19.3,19.3c10.7,0,19.3-8.6,19.3-19.3s-8.6-19.3-19.3-19.3
				C139.2,27.8,130.6,36.4,130.6,47.1z M161,47.1c0,6.1-5,11.1-11.1,11.1c-6.1,0-11.1-5-11.1-11.1s5-11.1,11.1-11.1
				C156,36,161,40.9,161,47.1z"/>
		</g>
	</g>
	<g>
		<g>
			<path class="st0" d="M214.4,70.4c-6.4,6.4-6.4,16.7,0,23c6.4,6.4,16.7,6.4,23,0s6.4-16.7,0-23S220.8,64,214.4,70.4z M232.5,88.5
				c-3.7,3.7-9.6,3.7-13.2,0s-3.7-9.6,0-13.2s9.6-3.7,13.2,0C236.2,78.9,236.2,84.8,232.5,88.5z"/>
		</g>
	</g>
	<g>
		<g>
			<path class="st0" d="M60.1,70.4c-6.4,6.4-6.4,16.7,0,23s16.7,6.4,23,0c6.4-6.4,6.4-16.7,0-23C76.8,64,66.5,64,60.1,70.4z
				 M78.2,88.5c-3.7,3.7-9.6,3.7-13.2,0c-3.7-3.7-3.7-9.6,0-13.2c3.7-3.7,9.6-3.7,13.2,0S81.9,84.8,78.2,88.5z"/>
		</g>
	</g>
	<g>
		<g>
			<path class="st0" d="M246.7,193.9l-6.2-2.8c3.6-8,6.2-16.5,7.5-25.2l6.7,1.1C253.3,176.3,250.6,185.4,246.7,193.9z"/>
		</g>
		<g>
			<path class="st0" d="M248.6,137.9c-2-16.6-8.2-32.5-17.9-46.1c-0.3-0.4-0.6-0.8-0.9-1.2l5.5-4.1c0.3,0.4,0.7,0.9,1,1.3
				c10.4,14.5,17,31.6,19.1,49.3L248.6,137.9z"/>
		</g>
		<g>
			<path class="st0" d="M215.4,74.8c-15-13.3-33.4-21.6-53.1-24.2l0.9-6.7c21.1,2.8,40.7,11.7,56.7,25.9L215.4,74.8z"/>
		</g>
		<g>
			<path class="st0" d="M82.6,74.9l-4.5-5.1c16-14.2,35.7-23.2,56.9-26l0.9,6.7C116.1,53.2,97.7,61.6,82.6,74.9z"/>
		</g>
		<g>
			<path class="st0" d="M49.6,137.6l-6.8-0.8c2.1-16.9,8.3-33.2,17.9-47.3l5.6,3.8C57.4,106.5,51.6,121.8,49.6,137.6z"/>
		</g>
		<g>
			<path class="st0" d="M51.9,194.8c-4-8.6-6.8-17.7-8.3-27l6.7-1.1c1.5,8.7,4.1,17.3,7.8,25.3L51.9,194.8z"/>
		</g>
	</g>
	<g>
		<path class="st0" d="M252.9,193.1c-8.5-6-17.8-8.1-28.1-7c-6.9,0.7-13.8,1.1-20.7,1.6c-0.5,0-1.4-0.4-1.5-0.8
			c-1.1-3.5-2.1-7-3.1-10.6c0.9-0.4,1.6-0.7,2.4-1c3.5-1.6,5.1-4.9,3.8-8.6c-2.4-6.8-4.7-13.6-7.4-20.3c-3.1-7.6-8.7-12.7-16.7-14.5
			c-4.3-0.9-8.9-0.7-13.4-0.9c-1.8-0.1-3-0.8-3.9-2.2c-1.1-1.9-1.9-2.3-2.8-5c-0.5-1.5,0-2.3,1.4-3.1c7.2-4.2,11-10.4,10.9-18.9
			c0-1.2,0.1-7.7-0.2-10.3c-1-7-4.9-11.9-10.8-15.4c-0.6-0.4-6.4-3-11.7-3s-11.4,2.4-12.8,3.2c-7.2,4.2-11,10.4-10.9,18.9
			c0,1.2-0.1,7.7,0.2,10.3c1,7,4.9,11.9,10.8,15.4c0.6,0.4,1.5,1.4,1.3,1.9c-0.8,1.9-2.3,4.9-2.9,6c-0.8,1.5-2,2.3-3.9,2.2
			c-2.3-0.1-4.6,0-6.8,0c-11,0-19.9,6.2-23.8,16.5c-2.3,6.2-4.5,12.4-6.7,18.5c-1.6,4.4-0.1,7.7,4.3,9.5c0.5,0.2,1,0.4,1.6,0.7
			c-1,3.6-2,7.1-3.1,10.6c-0.1,0.4-1,0.9-1.5,0.8c-6.9-0.5-13.8-0.9-20.7-1.6c-10.2-1.1-19.5,1-27.9,6.9c-3,2.1-4.2,4.6-3.5,7.5
			c0.8,3,2.9,4.8,6.5,5.2c3.6,0.4,7.2,0.7,10.7,1c0.8,0.1,1.5,0.2,2.4,0.3c-0.9,1.5-1.7,2.6-2.3,3.8c-4.8,10.3,0.7,21.6,12.2,24.9
			c17.1,4.9,34.3,9.8,51.4,14.7c0.7,0.2,1.6,0.6,1.8,1.1c0.9,3,2.9,4.7,5.7,5.9c6.6,3.3,23.8-0.9,26.1-1.5c8.7-2.5,17.4-5.1,26-7.6
			c14.4-4.3,28.8-8.4,43.1-12.9c9-2.8,14.1-11.9,11.8-21c-0.6-2.5-2.1-4.9-3.2-7.4c0.6-0.1,1.5-0.2,2.3-0.3c3.6-0.3,7.2-0.6,10.7-1
			c3.5-0.4,5.7-2.3,6.3-5.4C256.9,197.6,255.7,195,252.9,193.1z M133.9,102.7L133.9,102.7c0-0.6,0-7.9,0.1-9.3
			c0.2-4.9,2.8-8.6,6.9-11c6.5-3.8,13.2-3.8,19.6,0.2c4.4,2.7,6.7,6.8,6.7,12.2c0,4,0,8.1-0.1,8.8c-0.2,4.9-2.8,8.6-6.9,11
			c-6.5,3.8-13.2,3.8-19.6-0.2C136.3,111.7,134,107.8,133.9,102.7z M159.2,134.5c-4.4,4.3-13,4.3-17.6-0.3c1.1-2.2,2.2-4.3,3.1-6.6
			c0.8-2.2,1.1-2.3,1.9-3.8c2.6,0,5.3,0,7.7,0C155.8,128.4,157.5,129.8,159.2,134.5z M102.2,167.4c2.1-5.9,4.2-11.7,6.4-17.6
			c2.8-7.7,9.3-12.2,17.5-12.2c0.6,0,1.1,0,1.7,0c4.3-0.3,7.9,0.5,11.7,3.2c7.4,5.4,17.2,4.5,24.4-1.4c1.6-1.3,3.2-2,5.2-1.8
			c3.2,0.2,6.5,0,9.7,0.4c5.5,0.8,10,3.9,12.3,8.9c3.2,7.1,5.6,14.5,8.5,22c-7.3,2.9-14.3,5.7-21.9,8.8c1.4-4,2.7-7.6,4-11.1
			c0.5-1.4,1.1-2.7,1.7-4c0.9-2.1,0.3-3.9-1.5-4.7c-1.8-0.8-3.7-0.1-4.5,2.1c-2.1,5.5-4.2,11-5.9,16.6c-2.2,7.4-3.2,15-2.1,23.1
			c-12.5,1.6-24.8,1.7-37.3,0c1.4-13.7-2.4-26.2-7.5-38.4c-0.2-0.6-0.5-1.2-0.8-1.7c-1-1.8-2.7-2.4-4.4-1.6
			c-1.7,0.8-2.3,2.5-1.6,4.4c1.7,4.7,3.5,9.3,5.2,14c0.1,0.3,0.2,0.6,0.3,1.3c-7.3-2.9-14.3-5.7-21.4-8.6
			C101.9,168.4,102,167.9,102.2,167.4z M130.1,218.5C130.1,218.5,130.1,218.5,130.1,218.5c-0.8-0.3-1.6-0.6-2.3-0.9
			c-0.7-0.3-1.4-0.5-2.3-0.8c1.4-3.3,2.8-6.3,4-9.4c0.6-1.4,1.5-1,2.5-1c7.5,0.4,15,1,22.6,1.1c4.7,0.1,9.4-0.5,14.1-1.1
			c1.8-0.2,2.6,0.2,3.3,2c1.7,4.2,3.6,8.2,5.5,12.5c-0.4,0.2-0.9,0.6-1.5,0.8c-4.7,2.3-9.4,4.7-14.2,6.8c-1,0.4-2.4,0.5-3.5,0.2
			c-4.2-1.4-8.4-3-12.6-4.5l0,0L130.1,218.5z M123.3,205.2c-1.4,3-2.6,6.1-4.1,9.4c-3.7-1.3-7-2.5-11-4c5.7-1.7,7.1-6,8.4-10.6
			c1.4-5.3,3.1-10.4,4.7-15.6c3.7,0.9,3.7,0.9,4.1,4.2C126.1,194.2,125.8,199.8,123.3,205.2z M175.9,198.2
			c-0.9-3.7-0.3-7.7,0.2-11.5c0.1-1,2.1-1.8,3.5-3c0.5,1.5,0.8,2.5,1.1,3.4l3.6,12.7l0.2,0c0.3,1.1,0.7,2.3,1,3.4
			c1.6,5.2,5.3,7.8,10.7,7.7c0.4,0,0.9,0,1.4,0.4c-4.6,2.2-9.1,4.4-13.9,6.8c-0.8-1.5-1.6-2.9-2.2-4.5
			C179.5,208.4,177.1,203.4,175.9,198.2z M60,199.9c-2.7-0.2-5.3-0.5-8.5-0.8c7.4-5.5,15.3-7.1,23.8-6.4c7.4,0.7,14.9,1.2,22.3,1.8
			c3.5,0.3,6.1-1.7,7.2-5.3c1-3.3,1.9-6.6,2.9-10c0-0.1,0.2-0.2,0.3-0.4c2.2,0.9,4.5,1.8,7,2.8c-0.2,0.7-0.3,1.3-0.4,1.9
			c-1.7,5.8-3.4,11.5-5.2,17.3c-0.9,3-1.9,3.7-5,3.4c-5.8-0.6-11.6-1.1-17.3-1.7c-1-0.1-2-0.5-3-0.6c-2.1-0.4-4.2-0.8-6.3-1
			C71.8,200.5,65.9,200.2,60,199.9z M129.9,244.2c-0.7,0.3-1.9,0-2.7-0.2c-16.5-4.7-32.9-9.4-49.4-14.1c-0.9-0.3-1.9-0.5-2.8-0.8
			c-6.1-2-9.3-8.1-7.4-14c1.9-6,8.3-9.1,14.4-6.9c12.7,4.5,25.3,9.2,38,13.7c2.1,0.7,4.1,1.5,6.2,2.2l0,0.1l16.5,6l0,0
			c2.2,0.8,4.4,1.6,6.6,2.4c0.7,0.3,1.4,0.5,2.5,1c-3.1,1.5-5.9,2.8-8.7,4.2C138.7,239.9,134.3,242.1,129.9,244.2z M134,250.2
			c0.3-0.4,0.5-0.9,0.9-1.2c2.4-1.2,4.8-2.4,7.2-3.6c2.8-1.4,5.6-2.7,8.6-4.2c1.3,2.9,2.6,5.7,4.1,9.3
			C148,252.4,136.6,252.4,134,250.2z M226.4,229.1c-5.8,1.9-11.8,3.6-17.6,5.3c-15.2,4.5-30.3,9-45.4,13.5c-1.5,0.4-2.2,0.3-2.8-1.2
			c-1.1-2.8-2.4-5.4-3.6-8.3c3.3-1.6,6.5-3.2,9.7-4.7c17.2-8.3,34.3-16.6,51.5-24.9c6-2.9,12.7-0.4,15.2,5.6
			C235.7,220.4,232.6,227.1,226.4,229.1z M227.2,200.9c-5.7-0.3-10.9,1.5-16.4,1.8c-4.9,0.2-9.8,0.9-14.7,1.4
			c-2.5,0.2-3.6-0.5-4.3-2.9c-0.6-1.9-1.1-3.8-1.8-5.7l-3.5-11.7c-0.2-0.7-0.4-1.3-0.6-2.2c2.4-1,4.7-1.9,7.2-2.9
			c1,3.5,2,6.8,2.9,10.1c1.3,4.3,3.8,5.9,8.2,5.6c9.2-0.7,18.5-1.5,27.7-1.8c6.3-0.2,12,2.4,17.6,6.4
			C241.8,199.8,234.4,201.3,227.2,200.9z"/>
	</g>
</g>
</svg>
