<svg version="1.1" id="Capa_1" xmlns="http://www.w3.org/2000/svg" xmlns:xlink="http://www.w3.org/1999/xlink" x="0px" y="0px"
	 viewBox="0 0 250 250" style="enable-background:new 0 0 250 250;" xml:space="preserve">
<style type="text/css">
	.st0{fill:#FFFFFF;}
</style>
<g>
	<path class="st0" d="M68.4,216.6c-6-13.5-11.9-27.1-17.9-40.6c-1.4-3.2-1-6.3,0.8-9c4.8-7.6,9.7-15.1,14.6-22.6
		c5.9-9,12.2-17.7,17.6-27c2.3-4.1,2.9-9.2,3.7-14c0.3-1.6-0.8-4.2-2.1-5.1c-4.7-3.5-9.5-6.9-14.6-9.5c-7.5-3.8-15.3-6.9-23-10.4
		c-1.4-0.6-2.7-1.5-3.9-2.3c-12.5-8-15.2-17-7.7-32.5c3.5-7.2,11.5-9.6,21.5-7.7c8.9,1.7,16.8,5.7,24.2,10.7
		c18.1,12.2,33.2,27.2,44.2,46.3c1.6,2.7,2.8,5.7,3.9,8.6c2.4,6.5,2.2,12.8-1.7,18.8c-9.2,14.1-18.3,28.2-27.6,42.3
		c-10.5,15.9-21.2,31.7-29.3,49c-0.8,1.7-1.2,3.5-1.8,5.2C68.9,216.6,68.7,216.6,68.4,216.6z"/>
	<path class="st0" d="M24.2,108.5c1.3-5.2,2.8-10.2,6.9-14.1c7.3-7,18.5-8.3,27.2-2.9c8.7,5.4,12.5,15.7,9.2,25.3
		c-3.2,9.2-12.7,15.3-22.5,14.4c-10.8-1-18.7-8.3-20.2-18.6c-0.1-0.7-0.4-1.3-0.6-1.9C24.2,109.9,24.2,109.2,24.2,108.5z"/>
	<path class="st0" d="M186.7,33.4c3.8,7,7.5,13.3,10.6,19.9c3,6.4,5.3,13.2,8,19.8c1.6,4,1.2,7.8-1.2,11.4
		c-5,7.6-10.1,15.1-15.3,22.6c-5.4,7.9-11.3,15.5-16.2,23.7c-2.5,4.3-3.4,9.6-4.6,14.5c-1,4.1,0.9,7.5,4.5,9.5
		c5.2,3,10.6,5.9,16.1,8.4c8.4,3.9,16.9,7.4,25.3,11.1c5.2,2.3,8.4,6.3,8.5,11.9c0.1,5.4,0.1,11.1-1.4,16.3
		c-2.8,10.1-13.2,14.9-24.6,12.4c-8.7-2-16.4-6.2-23.5-11.4c-14.9-10.9-28-23.7-38.8-38.7c-3.4-4.7-6-10-8.3-15.4
		c-2.7-6.5-2.4-13.1,1.5-19.1c6.5-10.2,13.4-20.3,19.9-30.5c11.1-17.6,22.1-35.2,33-52.9C182.7,42.8,184.3,38.4,186.7,33.4z"/>
	<path class="st0" d="M225.8,136.4c0,12.1-9.8,21.7-22,21.6c-12.1-0.1-21.9-9.6-22-21.4c-0.1-11.9,9.8-21.7,21.9-21.8
		C215.9,114.7,225.8,124.4,225.8,136.4z"/>
</g>
</svg>
