<?xml version="1.0" encoding="utf-8"?>
<!-- Generator: Adobe Illustrator 27.2.0, SVG Export Plug-In . SVG Version: 6.00 Build 0)  -->
<svg version="1.1" id="Capa_1" xmlns="http://www.w3.org/2000/svg" xmlns:xlink="http://www.w3.org/1999/xlink" x="0px" y="0px"
	 viewBox="0 0 567 114" style="enable-background:new 0 0 567 114;" xml:space="preserve">
<style type="text/css">
	.st0{fill:#FFFFFF;}
</style>
<g id="g18_00000036942577126069562920000009150766284611222415_">
	<g id="g16_00000107557584786857361580000015252281728469043903_">
		<path id="path2_00000152251316355991488360000001371781350033200289_" class="st0" d="M161.9,97.3c0-5.2,3.2-9.4,8.9-12.6v-0.5
			c-3.2-2.2-5.7-5.5-5.7-10.6c0-4.5,3-8.9,7-11.7v-0.5c-4.4-3.1-8.4-8.9-8.4-16.3c-0.1-15.2,12.4-22.8,25.9-22.8
			c3.5,0,6.9,0.5,9.7,1.5h22.9v13.5h-10.1c1.2,1.9,2.1,5,2.1,8.2c0,14.4-11,21.1-24.7,21.1c-2.3,0-4.9-0.4-7.7-1.2
			c-1.5,1.4-2.2,2.5-2.2,4.7c0,3.1,2.5,4.6,9.4,4.6h10.2c15.4,0,24,4.7,24,15.9c0,13-13.6,22.5-35.2,22.5
			C173.5,113.2,161.9,108.5,161.9,97.3z M205.5,93.8c0-4-3.4-4.9-9.5-4.9h-6.5c-4.3,0-6.7-0.3-8.8-0.8c-2.3,2-3.4,3.9-3.4,6.2
			c0,4.7,5.5,7.2,13.9,7.2C199.4,101.5,205.5,98.2,205.5,93.8z M198.1,44.9c0-6.7-3.6-10.2-8.6-10.2s-8.6,3.6-8.6,10.2
			c0,6.9,3.7,10.4,8.6,10.4C194.4,55.3,198.1,51.8,198.1,44.9z"/>
		<path id="path4_00000052821099076656635060000017659487516870301610_" class="st0" d="M226.6,23.7h15.2l1.4,11h0.5
			c4.6-8.4,11.5-12.5,17.9-12.5c3.6,0,5.7,0.5,7.5,1.2l-3.1,16.1c-2.3-0.5-4.1-1-6.8-1c-4.7,0-10.5,3-13.8,11.6v36.4h-18.6
			L226.6,23.7L226.6,23.7z"/>
		<path id="path6_00000025431577773232458180000013296036681680637570_" class="st0" d="M269.7,62.7V23.7h18.6v36.6
			c0,9.1,2.4,11.9,7.8,11.9c4.7,0,7.6-2,11.2-6.9V23.7h18.6v62.8h-15.2l-1.4-8.7h-0.5C303.7,84,297.7,88,289.2,88
			C275.4,88,269.7,78.4,269.7,62.7z"/>
		<path id="path8_00000090290767356523557430000008995635807806659221_" class="st0" d="M335.4,23.7h15.2l1.4,6.2h0.5
			c4.9-4.4,11.3-7.7,17.9-7.7c15.2,0,24.5,12.6,24.5,31.9c0,21.6-12.8,33.9-26.4,33.9c-5.4,0-10.5-2.3-15-6.5l0.6,10v18.4h-18.6
			L335.4,23.7L335.4,23.7z M375.7,54.4c0-11.3-3.5-16.9-10.9-16.9c-3.8,0-7.1,1.7-10.8,5.6v25.7c3.4,3,6.9,4,10,4
			C370.5,72.8,375.7,67.3,375.7,54.4z"/>
		<path id="path10_00000150811382384647708510000005477166170764065190_" class="st0" d="M397.6,55.1c0-20.9,14.7-33,30.6-33
			c15.9,0,30.6,12.1,30.6,33c0,20.8-14.7,32.9-30.6,32.9C412.3,88,397.6,76,397.6,55.1z M439.7,55.1c0-10.8-3.8-17.9-11.5-17.9
			s-11.5,7.1-11.5,17.9S420.4,73,428.1,73C435.8,73,439.7,66,439.7,55.1z"/>
		<path id="path12_00000036249464821854891300000016045327157620570813_" class="st0" d="M467.6,4h23.3c25.2,0,41.4,12.6,41.4,40.8
			c0,28.4-16.2,41.6-40.4,41.6h-24.4V4z M489.8,71.5c14,0,23.4-6.9,23.4-26.6S503.7,19,489.8,19h-3.6v52.5H489.8z"/>
		<path id="path14_00000116222203906637880810000014260591713384611476_" class="st0" d="M543.3,4H562v82.5h-18.7V4z"/>
	</g>
</g>
<g>
	<path class="st0" d="M27.6,111.5c-3.6-8.1-7.1-16.2-10.7-24.3c-0.8-1.9-0.6-3.8,0.5-5.4c2.8-4.6,5.8-9.1,8.7-13.6
		c3.5-5.4,7.3-10.6,10.5-16.2c1.4-2.4,1.7-5.5,2.2-8.4c0.2-1-0.5-2.5-1.3-3.1c-2.8-2.1-5.7-4.1-8.7-5.7c-4.5-2.3-9.2-4.1-13.7-6.2
		c-0.8-0.4-1.6-0.9-2.4-1.4C5.1,22.5,3.5,17.1,8.1,7.8c2.1-4.3,6.9-5.8,12.9-4.6c5.3,1,10,3.4,14.5,6.4
		c10.8,7.3,19.9,16.3,26.4,27.7c0.9,1.6,1.7,3.4,2.3,5.2c1.5,3.9,1.3,7.7-1,11.3c-5.5,8.4-11,16.9-16.5,25.3
		c-6.3,9.5-12.7,19-17.5,29.3c-0.5,1-0.7,2.1-1.1,3.1C27.9,111.5,27.7,111.5,27.6,111.5z"/>
	<path class="st0" d="M1.1,46.8c0.8-3.1,1.7-6.1,4.1-8.4c4.4-4.2,11.1-4.9,16.3-1.7C26.8,39.8,29,46,27,51.7
		c-1.9,5.5-7.6,9.2-13.5,8.6C7.1,59.7,2.4,55.4,1.5,49.2c-0.1-0.4-0.2-0.8-0.4-1.2C1.1,47.6,1.1,47.2,1.1,46.8z"/>
	<path class="st0" d="M98.4,1.8c2.3,4.2,4.5,7.9,6.3,11.9c1.8,3.8,3.2,7.9,4.8,11.8c1,2.4,0.7,4.7-0.7,6.8c-3,4.5-6.1,9.1-9.2,13.6
		c-3.2,4.7-6.8,9.3-9.7,14.2c-1.5,2.6-2,5.7-2.8,8.7c-0.6,2.4,0.6,4.5,2.7,5.7c3.1,1.8,6.3,3.5,9.6,5c5,2.3,10.1,4.5,15.2,6.7
		c3.1,1.4,5,3.8,5.1,7.1c0.1,3.2,0,6.6-0.8,9.7c-1.7,6-7.9,8.9-14.7,7.4c-5.2-1.2-9.8-3.7-14.1-6.8C81.3,97,73.4,89.4,67,80.4
		c-2-2.8-3.6-6-4.9-9.2c-1.6-3.9-1.4-7.8,0.9-11.5c3.9-6.1,8-12.1,11.9-18.3C81.5,30.9,88,20.4,94.6,9.8C96,7.4,97,4.8,98.4,1.8z"/>
	<path class="st0" d="M121.8,63.5c0,7.2-5.9,13-13.2,12.9c-7.2,0-13.1-5.7-13.1-12.8c-0.1-7.1,5.8-13,13.1-13
		C115.9,50.5,121.8,56.3,121.8,63.5z"/>
</g>
</svg>
