<?xml version="1.0" encoding="utf-8"?>
<!-- Generator: Adobe Illustrator 27.2.0, SVG Export Plug-In . SVG Version: 6.00 Build 0)  -->
<svg version="1.1" id="Capa_1" xmlns="http://www.w3.org/2000/svg" xmlns:xlink="http://www.w3.org/1999/xlink" x="0px" y="0px"
	 viewBox="0 0 300 300" style="enable-background:new 0 0 300 300;" xml:space="preserve">
<style type="text/css">
	.st0{fill:#FFFFFF;}
	.st1{fill:#EAE4D3;}
</style>
<g>
	<path class="st0" d="M-278.6,295.9c-38.9,0-75.4-15.1-102.8-42.6c-27.5-27.5-42.6-64-42.6-102.9s15.1-75.3,42.6-102.8
		S-317.4,5-278.6,5s75.4,15.1,102.8,42.6c27.5,27.5,42.6,64,42.6,102.8s-15.1,75.4-42.6,102.8C-203.2,280.8-239.7,295.9-278.6,295.9
		z M-278.6,14.3c-75,0-136.1,61.1-136.1,136.1s61.1,136.1,136.1,136.1s136.1-61.1,136.1-136.1S-203.5,14.3-278.6,14.3z"/>
</g>
<g>
	<path class="st0" d="M-187,103.2c4-3.3,6.5-8.2,6.5-13.8c0-9.9-8-17.9-17.9-17.9c-3.4,0-6.5,0.9-9.2,2.5c-0.5-0.3-1-0.7-1.4-1.1
		c1.3-2.5,2.1-5.3,2.1-8.3c0-9.9-8-17.9-17.9-17.9c-5.6,0-10.6,2.6-13.9,6.6c-9.8-4.2-20-6.7-30.7-7.6c-17.1-1.4-33.4,1.2-48.9,8.1
		c-3.2-4.6-8.6-7.7-14.7-7.7c-9.9,0-17.9,8-17.9,17.9c0,3.7,1.1,7.1,3,9.9c-1.9,1.9-3.8,3.8-5.5,5.8c-0.6,0.7-0.9,2.3-0.6,3.1
		c0.4,0.9,1.7,1.8,2.6,1.9s2.1-0.7,2.9-1.5c1.6-1.6,3.2-3.3,4.8-4.9c3,2.4,6.7,3.7,10.7,3.7c7.1,0,13.2-4.1,16.1-10.1
		c7.7,2.5,15,5.7,22.1,9.5c-0.8,2-1.2,4.2-1.2,6.4c0,3.4,1,6.6,2.6,9.4c-5.2,4.8-9.9,10-14.3,15.6c-2.2-1-4.7-1.6-7.3-1.6
		c-8.1,0-14.9,5.3-17.1,12.7c-9.2,0.4-18.3,1.3-27.3,3c-1.6-4.1-4.7-7.4-8.6-9.4c2.3-7.2,5.4-14,9.3-20.4c1.3-2.1,1-3.8-0.6-4.8
		c-1.8-1.1-3.3-0.6-4.7,1.7c-4.2,6.9-7.5,14.1-9.9,21.8c-0.7-0.1-1.4-0.1-2.2-0.1c-9.9,0-17.9,8-17.9,17.9c0,9,6.7,16.5,15.4,17.7
		c0.1,1.6,0.1,3.2,0.3,4.7c2.6,24.2,12.3,45,29.3,62.2c-1.4,2.5-2.1,5.4-2.1,8.5c0,9.9,8,17.9,17.9,17.9c5.3,0,10-2.3,13.3-5.9
		c10.6,5,21.7,7.9,33.4,8.8c17.2,1.4,33.6-1.2,49.2-8.1c3.3,4.2,8.4,6.9,14.1,6.9c9.9,0,17.9-8,17.9-17.9c0-3.3-0.9-6.4-2.5-9
		c16.9-16.6,27.1-36.7,29.9-60.6C-175.7,139.2-178.7,120.6-187,103.2z M-333,71.7c-4.2,0-7.6-3.4-7.6-7.6s3.4-7.6,7.6-7.6
		s7.6,3.4,7.6,7.6S-328.8,71.7-333,71.7z M-198.4,81.8c4.2,0,7.6,3.4,7.6,7.6s-3.4,7.6-7.6,7.6c-4.2,0-7.6-3.4-7.6-7.6
		C-206,85.2-202.6,81.8-198.4,81.8z M-224.8,57.1c4.2,0,7.6,3.4,7.6,7.6s-3.4,7.6-7.6,7.6s-7.6-3.4-7.6-7.6
		C-232.4,60.5-229,57.1-224.8,57.1z M-224.8,82.6c4.6,0,8.9-1.8,12-4.7c0.1,0.1,0.3,0.3,0.4,0.4c-2.5,3.1-3.9,6.9-3.9,11.2
		c0,6.1,3,11.4,7.6,14.6c-3.7,11-8.4,21.6-14.1,31.8c-2.1-0.8-4.3-1.3-6.7-1.3c-1.5,0-3,0.2-4.4,0.6c-7.5-14.4-17.1-27.2-29-38.2
		c1.6-2.7,2.5-5.8,2.5-9.1c0-2.2-0.4-4.3-1.1-6.3c6.6-3.6,13.4-6.6,20.5-9C-237.9,78.5-231.8,82.6-224.8,82.6z M-221.7,152.4
		c0,4.2-3.4,7.6-7.6,7.6c-4.2,0-7.6-3.4-7.6-7.6s3.4-7.6,7.6-7.6C-225.1,144.8-221.7,148.2-221.7,152.4z M-315.2,65.9
		c0.1-0.6,0.1-1.2,0.1-1.8c0-1.6-0.2-3.1-0.6-4.6c13.6-6,27.9-8.5,42.8-7.8c10.8,0.6,21.3,2.9,31.2,7c-0.6,1.8-1,3.8-1,5.8
		c0,0.6,0,1.3,0.1,1.9c-7.6,2.6-14.9,5.8-21.9,9.6c-3.3-3.9-8.2-6.3-13.6-6.3s-10.2,2.4-13.5,6.2C-299.2,72-307,68.6-315.2,65.9z
		 M-270.5,87.8c0,4.2-3.4,7.6-7.6,7.6s-7.6-3.4-7.6-7.6s3.4-7.6,7.6-7.6C-273.9,80.2-270.5,83.6-270.5,87.8z M-290.1,102.5
		c0.3-0.3,0.6-0.5,0.8-0.8c3.1,2.4,6.9,3.9,11.1,3.9c4.3,0,8.3-1.5,11.4-4.1c11.1,10.5,20.3,22.5,27.4,36.1
		c-1.6,1.1-3.1,2.5-4.3,4.1c-16.8-7.9-34.4-13.2-52.8-15.9c-0.3,0-0.6-0.1-0.9-0.1c-0.7-3.7-2.5-7-5.1-9.6
		C-298.8,111.5-294.6,106.9-290.1,102.5z M-315,121.4c4.2,0,7.6,3.4,7.6,7.6s-3.4,7.6-7.6,7.6s-7.6-3.4-7.6-7.6
		C-322.6,124.8-319.2,121.4-315,121.4z M-383.6,133.4c0-4.2,3.4-7.6,7.6-7.6s7.6,3.4,7.6,7.6s-3.4,7.6-7.6,7.6
		S-383.6,137.6-383.6,133.4z M-372.3,150.9c8.1-1.7,14.2-8.9,14.2-17.5c0-0.1,0-0.1,0-0.2c8.5-0.9,16.9-1.9,25.4-2.8
		c0.4,5.1,3,9.7,6.8,12.7c-4.5,10.1-7.7,20.5-9.8,31.3c-2.2,11.6-3,23.3-2.2,35c-2.7,0.7-5.2,2.1-7.2,3.9
		C-361.3,195.7-370.1,174.8-372.3,150.9z M-333.3,234.3c-4.2,0-7.6-3.4-7.6-7.6c0-4.2,3.4-7.6,7.6-7.6s7.6,3.4,7.6,7.6
		C-325.7,230.9-329.1,234.3-333.3,234.3z M-331.8,208.9c-1.3-21.9,2.4-42.9,11.3-62.9c1.7,0.6,3.6,0.9,5.6,0.9
		c8.9,0,16.2-6.5,17.6-14.9c1.7,0.2,3.3,0.5,5,0.8c15.9,2.9,31.2,7.7,45.9,14.5c-0.5,1.6-0.8,3.3-0.8,5.1c0,4.7,1.8,8.9,4.7,12.1
		c-10.4,12.4-22.2,23.3-35.4,32.7c-12.3,8.7-25.5,15.8-39.4,21.3C-320.1,213.2-325.5,209.4-331.8,208.9z M-223.3,235.9
		c-4.2,0-7.6-3.4-7.6-7.6s3.4-7.6,7.6-7.6s7.6,3.4,7.6,7.6S-219.1,235.9-223.3,235.9z M-192.6,187.7c-4.9,10.1-11.3,19.1-19.2,26.9
		c-1.8-1.5-3.9-2.7-6.2-3.4c0.3-4.1,0.3-8.1,0.5-12.2c0.1-2.1-1.2-3.4-3-3.4c-1.9,0-3,1.2-3.1,3.3c-0.2,3.8-0.3,7.7-0.5,11.5
		c-9.4,0.5-16.9,8.3-16.9,17.8c0,1.9,0.3,3.7,0.9,5.5c-25.5,10.8-50.9,10.6-76.4-0.5c0.8-2,1.3-4.3,1.3-6.6c0-0.7,0-1.4-0.1-2.1
		c9.7-3.8,19.1-8.4,28.1-13.7c19.1-11.3,35.7-25.5,49.8-42.5c2.5,1.3,5.3,2,8.3,2c0.7,0,1.4,0,2-0.1c0.6,3.3,1.3,6.6,1.9,9.9
		c0.3,1.5,0.6,3,2.4,3.4c2.2,0.5,4.2-1.1,3.8-3.5c-0.7-3.9-1.5-7.7-2.3-11.5c1.9-0.9,3.5-2.1,4.9-3.6c8.3,6,16.1,12.6,23.4,19.8
		C-192.1,185.7-192,186.4-192.6,187.7z M-183.7,153.7c-0.6,8.3-2.2,16.4-5,24.3c-0.2,0.5-0.4,1-0.6,1.6c-3.8-3.4-7.5-7-11.4-10.2
		c-4-3.3-8.2-6.4-12.4-9.6c1-2.3,1.6-4.8,1.6-7.4c0-5.3-2.3-10.1-6-13.3c5.8-10.3,10.7-21.1,14.4-32.4c1.5,0.4,3,0.6,4.6,0.6
		c2.1,0,4.1-0.4,6-1C-185.3,121.2-182.5,137-183.7,153.7z"/>
</g>
<g>
	<path class="st1" d="M105.3,188.5l21.7-23.4c-3-1.8-5.4-4.6-6.6-8l-45.6,4.8c-0.8,2-2.2,3.8-4,4.9l15.2,16.3c1.8-0.6,3.8-1,5.8-1
		C97.1,182.1,102,184.6,105.3,188.5z"/>
	<path class="st1" d="M73.2,80.4c5.8,2.9,9.7,8.9,9.7,15.8c0,0.6,0,1.3-0.1,1.9l19.2,0.3c1.1-2.2,3-3.9,5.4-4.7l-7-31.6
		c-0.6,0.1-1.3,0.2-2,0.2c-2.5,0-4.8-0.9-6.6-2.3C83.8,65.5,77.7,72.5,73.2,80.4z"/>
	<path class="st1" d="M104.6,51.6c0-3.4-2.8-6.2-6.2-6.2c-3.4,0-6.2,2.8-6.2,6.2c0,3.4,2.8,6.2,6.2,6.2
		C101.8,57.8,104.6,55,104.6,51.6z"/>
	<path class="st1" d="M105.3,59.8l6.7,33.6c2.2,0.4,4.2,1.6,5.6,3.2l26.2-4.2c0-0.1,0-0.2,0-0.3c0-7.3,4.5-13.6,10.9-16.2l-6.8-19.7
		c-6.4-1-11.6-5.8-12.9-12.1c-8.8,0.8-17.4,3-25.9,6.5c0,0.3,0.1,0.7,0.1,1C109.1,54.9,107.6,57.8,105.3,59.8z"/>
	<path class="st1" d="M119.4,151.7c0-4.5,2-8.6,5.1-11.5l-10.9-28.8c-1,0.3-2,0.5-3.1,0.5c-1.3,0-2.5-0.3-3.6-0.7L73,151.7
		c1.1,1.3,1.9,3,2.2,4.7L119.4,151.7z"/>
	<path class="st1" d="M186.3,288.6c0-3.1-2.5-5.6-5.6-5.6s-5.6,2.5-5.6,5.6c0,2.2,1.2,4,3,5c2.4-0.5,4.8-1,7.2-1.6
		C185.8,291.1,186.3,289.9,186.3,288.6z"/>
	<circle class="st1" cx="90.6" cy="247" r="5.6"/>
	<path class="st1" d="M150,4.7C69.6,4.7,4.2,70.1,4.2,150.5c0,80.4,65.4,145.8,145.8,145.8c7.7,0,15.4-0.6,22.8-1.8
		c-1.2-1.6-2-3.7-2-5.9c0-2.8,1.1-5.3,3-7l-7.2-9.4c-1.6,0.6-3.2,0.9-5,0.9c-8,0-14.5-6.5-14.5-14.5c0-8,6.5-14.5,14.5-14.5
		c1.4,0,2.7,0.2,3.9,0.6c1.8-3,3.9-6.1,6.2-9.1c5-6.6,12-9.4,20-8.3c5,0.7,10.5,1.2,17.8,1.6c2.8,0.1,5.8-0.4,8.5-0.8
		c1.6-0.3,2.3-0.9,2.4-2.6c0.2-2,0.4-4,0.7-6.1c0.2-2.1,0.5-4.1,0.7-6.2c0.3-2.7,0.7-7.3,4.6-10c-2-4.5-0.7-8.6,3.7-11.7
		c0,0,0.1,0,0.1-0.1c0-0.1,0-0.2,0-0.3c-0.1-1.7-0.1-3.4-0.1-5.1c0-0.8,0-1.6,0-2.4c-0.1-2.5,0.8-6,5.1-8.5l0.6-0.3
		c2.6-1.5,5-2.9,7.3-4.5c0.3-0.2,0.6-0.4,0.8-0.6c-0.1-0.2-0.3-0.5-0.6-1c-1.2-1.9-2.5-3.8-3.7-5.6c-3.1-4.7-6.3-9.5-9-14.6
		c-2.9-5.4-4.5-11.3-6.1-17l0-0.1c-0.9-3.3-0.5-6.9-0.1-9.4c0.1-0.7,0.2-1.4,0.3-2.1c-4.7-1.2-8.3-5.3-8.8-10.2l-39.8-8.2
		c-2.9,4.5-7.9,7.6-13.6,7.9l-18.9,29.1c4.2,2.8,7.1,7.6,7.1,13c0,8.6-7,15.6-15.6,15.6c-0.8,0-1.7-0.1-2.5-0.2l-24.3,26.2
		c0.8,2,1.3,4.2,1.3,6.6c0,8.6-6.1,15.7-14.1,17.4l-0.9,20.7c3.6,1.5,6.1,5,6.1,9.1c0,5.4-4.4,9.8-9.8,9.8c-5.4,0-9.8-4.4-9.8-9.8
		c0-4.9,3.6-8.9,8.3-9.7l0.9-19.8c-9-0.8-16.1-8.4-16.1-17.7c0-5.9,2.9-11.1,7.3-14.4l-15.6-17.2c-0.1,0-0.2,0-0.3,0
		c-5.6,0-10.1-4.5-10.1-10.1c0-2.9,1.2-5.5,3.2-7.4c-2-6.9-0.3-29.1-1.1-38.7c-5.8-2.9-9.8-8.9-9.8-15.9c0-9.8,7.9-17.7,17.7-17.7
		c0.2,0,0.3,0,0.5,0c5.1-9.8,12.4-18.3,22.2-24.9c-0.1-0.6-0.2-1.3-0.2-2c0-5.9,4.8-10.7,10.7-10.7c2.9,0,5.4,1.1,7.4,2.9
		c9.6-4.1,19.4-6.5,29.5-7.3c1.9-6.4,7.9-11.2,14.9-11.2c7.8,0,14.3,5.8,15.4,13.3c9.2,2,18.6,5.2,28,9.6c1.9,0.9,3.8,1.9,5.6,2.9
		c2.2-1.7,4.9-2.7,7.9-2.7c7.1,0,12.9,5.8,12.9,12.9c0,2.2-0.5,4.2-1.5,6c2.9,3.6,5.4,7.4,7.5,11.6c2.9,5.8,4.8,12,5.9,18.5
		c4.5,1.7,7.7,6.1,7.7,11.2c0,5-3,9.2-7.3,11c-0.2,1.3-0.3,2.6-0.6,3.9c-0.5,2.7-0.5,4.6-0.1,6l0,0.1c1.5,5.3,3.1,10.8,5.6,15.5
		c2.5,4.8,5.6,9.4,8.6,13.9c1.2,1.9,2.5,3.8,3.8,5.7c2.8,4.3,3.4,7.8-2.1,11.7c-2.6,1.8-5.3,3.4-8,4.9l-0.6,0.3
		c-1.3,0.8-1.3,1.2-1.3,1.8c0,0.9,0,1.7,0,2.6c0,1.6,0,3,0.1,4.4c0.2,2,0,4.9-3.2,7.2c-1.6,1.1-1.9,1.5-0.5,3.7
		c0.2,0.3,0.3,0.6,0.6,0.9l0.4,0.6c0.5,0.9,0.7,1.9,0.4,2.9c-0.3,1-0.9,1.8-1.8,2.3c0,0-0.1,0-0.1,0.1c-0.3,0.2-0.9,0.6-1.6,0.8
		c-1.5,0.5-2,1.2-2.4,5.1c-0.2,2.1-0.4,4.2-0.7,6.3c-0.2,2-0.4,4-0.6,6c-0.5,5.1-3.7,8.5-8.7,9.3c-3.1,0.5-6.5,1-10.1,0.9
		c-5.1-0.2-11.8-0.6-18.6-1.6c-5.4-0.8-9.5,0.9-12.9,5.4c-2.1,2.7-4,5.6-5.7,8.3c2.5,2.6,4.1,6.2,4.1,10.1c0,4.3-1.9,8.2-4.9,10.9
		l7.3,9.6c0.7-0.1,1.4-0.2,2.1-0.2c5.4,0,9.8,4.4,9.8,9.8c0,0.7-0.1,1.4-0.2,2c60.9-17.5,105.6-73.7,105.6-140.2
		C295.8,70.1,230.4,4.7,150,4.7z"/>
	<circle class="st1" cx="91.6" cy="199.9" r="10.2"/>
	<path class="st1" d="M216.5,104.3c1.3-3.4,4.2-6.1,7.7-7.1c-1.8-9.1-5.5-17.4-11.1-24.4c-1.8,1-3.9,1.5-6,1.5c-3.7,0-6.9-1.5-9.3-4
		l-20,16.1c0.6,1.8,1,3.8,1,5.8c0,0.5,0,1.1-0.1,1.6L216.5,104.3z"/>
	<circle class="st1" cx="150.1" cy="40.9" r="9"/>
	<path class="st1" d="M194.9,65.5c-0.5-1.3-0.7-2.7-0.7-4.2c0-1.4,0.2-2.7,0.6-4c-1.4-0.8-2.9-1.6-4.4-2.3c-8.6-4-17.2-7-25.6-8.8
		c-1.8,4.9-6,8.7-11.2,9.9l9,18.7c4.2,0.3,7.9,2.1,10.8,4.8L194.9,65.5z"/>
	<circle class="st1" cx="207.1" cy="61.3" r="7.4"/>
	<path class="st1" d="M153.3,258.6c0,4.6,3.7,8.3,8.3,8.3s8.3-3.7,8.3-8.3c0-4.6-3.7-8.3-8.3-8.3S153.3,254,153.3,258.6z"/>
	<path class="st1" d="M81.6,103c-2.7,6.4-9,11-16.4,11c-0.1,0-0.2,0-0.3,0c0.9,8.5-1.4,27,0.6,34.2c1.1,0,2.1,0.2,3.1,0.6l34.5-40.2
		c-1.3-1.6-2-3.5-2.1-5.7L81.6,103z"/>
	<path class="st1" d="M227.6,115.5c3.8,0,6.9-3.1,6.9-6.9c0-3.8-3.1-6.9-6.9-6.9c-3.8,0-6.9,3.1-6.9,6.9
		C220.7,112.4,223.8,115.5,227.6,115.5z"/>
	
		<ellipse transform="matrix(0.9871 -0.1602 0.1602 0.9871 -12.6815 27.0255)" class="st1" cx="161.3" cy="92.2" rx="10.1" ry="10.1"/>
	<circle class="st1" cx="110.4" cy="102.6" r="5.4"/>
	<path class="st1" d="M145.7,100l-26.1,0.8c0.1,0.6,0.2,1.2,0.2,1.8c0,2.4-0.9,4.6-2.4,6.3l11.5,28.5c1.9-0.8,3.9-1.2,6.1-1.2
		c1.2,0,2.3,0.1,3.4,0.4l15.6-28.6C150.3,106.3,147.4,103.5,145.7,100z"/>
	<path class="st1" d="M65.2,86C59.6,86,55,90.6,55,96.2s4.6,10.2,10.2,10.2c4,0,7.4-2.3,9.1-5.6l0.9-2.8l0,0
		c0.1-0.6,0.2-1.1,0.2-1.7C75.4,90.6,70.8,86,65.2,86z"/>
	<path class="st1" d="M134.9,160.7c4.9,0,9-4,9-9c0-4.9-4-9-9-9c-4.9,0-9,4-9,9C126,156.7,130,160.7,134.9,160.7z"/>
	<path class="st1" d="M65.2,164.1c3.2,0,5.8-2.6,5.8-5.8c0-3.2-2.6-5.8-5.8-5.8c-3.2,0-5.8,2.6-5.8,5.8
		C59.4,161.4,62,164.1,65.2,164.1z"/>
</g>
</svg>
