<?xml version="1.0" encoding="utf-8"?>
<!-- Generator: Adobe Illustrator 27.2.0, SVG Export Plug-In . SVG Version: 6.00 Build 0)  -->
<svg version="1.1" id="Capa_1" xmlns="http://www.w3.org/2000/svg" xmlns:xlink="http://www.w3.org/1999/xlink" x="0px" y="0px"
	 viewBox="0 0 300 300" style="enable-background:new 0 0 300 300;" xml:space="preserve">
<style type="text/css">
	.st0{fill:#F2E8C4;}
	.st1{fill:#FFFFFF;}
</style>
<g>
	<path class="st0" d="M150.9,64.2c5.8,0,11,2.6,14.5,6.7c7.5-4.1,15.3-7.5,23.4-10.3c-0.1-0.6-0.1-1.4-0.1-2c0-2.1,0.4-4.3,1.1-6.2
		c-10.6-4.4-21.8-6.8-33.3-7.5c-15.9-0.7-31.2,1.9-45.7,8.3c0.4,1.6,0.6,3.2,0.6,4.9c0,0.6,0,1.3-0.1,1.9
		c8.8,2.9,17.1,6.5,25.2,10.7C140,66.7,145.2,64.2,150.9,64.2z"/>
	
		<ellipse transform="matrix(0.7071 -0.7071 0.7071 0.7071 -48.3801 188.2664)" class="st0" cx="203.1" cy="152.5" rx="8.1" ry="8.1"/>
	<ellipse transform="matrix(0.9732 -0.2298 0.2298 0.9732 -15.1514 36.9117)" class="st0" cx="150.9" cy="83.5" rx="8.1" ry="8.1"/>
	<path class="st0" d="M131.3,124.1c19.7,2.9,38.5,8.5,56.4,17c1.3-1.7,2.9-3.2,4.6-4.4c-7.6-14.5-17.4-27.3-29.3-38.6
		c-3.3,2.8-7.6,4.4-12.2,4.4c-4.5,0-8.5-1.6-11.9-4.2c-0.2,0.3-0.5,0.5-0.9,0.9c-4.8,4.7-9.3,9.6-13.2,14.5
		c2.8,2.8,4.7,6.3,5.4,10.3C130.6,124,131,124.1,131.3,124.1z"/>
	<circle class="st0" cx="111.5" cy="127.5" r="8.1"/>
	<ellipse transform="matrix(0.9732 -0.2298 0.2298 0.9732 -13.2665 56.5199)" class="st0" cx="236.1" cy="85.2" rx="8.1" ry="8.1"/>
	<circle class="st0" cx="92.3" cy="58.2" r="8.1"/>
	<path class="st0" d="M169.8,83.6c0,3.5-1,6.8-2.7,9.7c12.7,11.8,23,25.4,31,40.8c1.5-0.4,3.1-0.6,4.7-0.6c2.6,0,4.9,0.5,7.2,1.4
		c6.1-10.9,11.1-22.2,15.1-34c-4.9-3.4-8.1-9.1-8.1-15.6c0-4.6,1.5-8.7,4.2-12c-0.1-0.1-0.3-0.3-0.4-0.4c-3.3,3.1-7.9,5-12.8,5
		c-7.5,0-14-4.4-17.3-10.7c-7.6,2.6-14.8,5.8-21.9,9.6C169.4,79,169.8,81.3,169.8,83.6z"/>
	<path class="st0" d="M207.9,67c4.5,0,8.1-3.6,8.1-8.1c0-4.5-3.6-8.1-8.1-8.1c-4.5,0-8.1,3.6-8.1,8.1C199.8,63.3,203.4,67,207.9,67z
		"/>
	<path class="st0" d="M189,165.5c-3.1-3.4-5-7.9-5-12.9c0-1.9,0.3-3.7,0.9-5.4c-15.7-7.3-32-12.4-49-15.5c-1.8-0.3-3.5-0.6-5.3-0.9
		c-1.5,9-9.3,15.9-18.8,15.9c-2.1,0-4.2-0.3-6-1c-9.5,21.4-13.5,43.8-12.1,67.2c6.7,0.5,12.5,4.6,15.5,10.3
		c14.8-5.9,29-13.5,42.1-22.8C165.2,190.4,177.9,178.7,189,165.5z"/>
	<path class="st0" d="M236,104.4c-1.7,0-3.3-0.2-4.9-0.6c-4,12.1-9.2,23.6-15.4,34.6c4,3.4,6.4,8.5,6.4,14.2c0,2.8-0.6,5.4-1.7,7.9
		c4.5,3.4,9,6.7,13.2,10.3c4.2,3.4,8.1,7.3,12.2,10.9c0.2-0.6,0.4-1.2,0.6-1.7c3-8.4,4.7-17.1,5.3-26c1.3-17.8-1.7-34.7-9.4-50.6
		C240.4,103.9,238.2,104.4,236,104.4z"/>
	<path class="st0" d="M216.8,165.9c-1.5,1.6-3.2,2.9-5.2,3.8c0.9,4.1,1.7,8.1,2.5,12.3c0.4,2.6-1.7,4.3-4.1,3.7
		c-1.9-0.4-2.2-2-2.6-3.6c-0.6-3.5-1.4-7.1-2-10.6c-0.6,0.1-1.4,0.1-2.1,0.1c-3.2,0-6.2-0.7-8.9-2.1c-15.1,18.2-32.8,33.3-53.2,45.4
		c-9.6,5.7-19.7,10.6-30,14.6c0.1,0.7,0.1,1.5,0.1,2.2c0,2.5-0.5,4.9-1.4,7.1c27.2,11.9,54.4,12.1,81.6,0.5c-0.6-1.9-1-3.8-1-5.9
		c0-10.1,8-18.5,18.1-19c0.2-4.1,0.3-8.2,0.5-12.3c0.1-2.2,1.3-3.5,3.3-3.5c1.9,0,3.3,1.4,3.2,3.6c-0.2,4.4-0.2,8.7-0.5,13
		c2.5,0.7,4.7,2,6.6,3.6c8.4-8.3,15.3-17.9,20.5-28.7c0.6-1.4,0.5-2.1-0.4-3.2C234,179.3,225.7,172.3,216.8,165.9z"/>
	<path class="st0" d="M253.2,47.6C225.8,20.1,189.2,5,150.4,5C111.6,5,75.1,20.1,47.6,47.6S5,111.5,5,150.4
		c0,38.9,15.1,75.4,42.6,102.9c27.4,27.5,63.9,42.6,102.8,42.6c38.9,0,75.4-15.1,102.8-42.7c27.5-27.4,42.6-64,42.6-102.8
		S280.7,75.1,253.2,47.6z M258,159.4c-3,25.5-13.9,47-31.9,64.7c1.7,2.8,2.7,6.1,2.7,9.6c0,10.6-8.5,19.1-19.1,19.1
		c-6.1,0-11.5-2.9-15.1-7.4c-16.7,7.4-34.2,10.1-52.6,8.7c-12.5-1-24.4-4.1-35.7-9.4c-3.5,3.8-8.5,6.3-14.2,6.3
		c-10.6,0-19.1-8.5-19.1-19.1c0-3.3,0.7-6.4,2.2-9.1c-18.2-18.4-28.5-40.6-31.3-66.4c-0.2-1.6-0.2-3.3-0.3-5
		c-9.3-1.3-16.5-9.3-16.5-18.9c0-10.6,8.5-19.1,19.1-19.1c0.9,0,1.6,0,2.4,0.1c2.6-8.2,6.1-15.9,10.6-23.3c1.5-2.5,3.1-3,5-1.8
		c1.7,1.1,2,2.9,0.6,5.1c-4.2,6.8-7.5,14.1-9.9,21.8c4.2,2.1,7.5,5.7,9.2,10c9.6-1.8,19.3-2.8,29.2-3.2c2.4-7.9,9.6-13.6,18.3-13.6
		c2.8,0,5.4,0.6,7.8,1.7c4.7-6,9.7-11.5,15.3-16.7c-1.7-3-2.8-6.4-2.8-10c0-2.4,0.4-4.7,1.3-6.8c-7.6-4.1-15.4-7.5-23.6-10.1
		c-3.1,6.4-9.6,10.8-17.2,10.8c-4.3,0-8.2-1.4-11.4-4c-1.7,1.7-3.4,3.5-5.1,5.2c-0.9,0.9-2.1,1.7-3.1,1.6c-1-0.1-2.4-1.1-2.8-2
		c-0.3-0.9,0-2.6,0.6-3.3c1.8-2.1,3.8-4.2,5.9-6.2c-2-3-3.2-6.6-3.2-10.6c0-10.6,8.5-19.1,19.1-19.1c6.5,0,12.3,3.3,15.7,8.2
		c16.6-7.4,34-10.1,52.2-8.7c11.4,1,22.3,3.6,32.8,8.1c3.5-4.3,8.9-7.1,14.8-7.1c10.6,0,19.1,8.5,19.1,19.1c0,3.2-0.9,6.2-2.2,8.9
		c0.4,0.4,1,0.9,1.5,1.2c2.9-1.7,6.2-2.7,9.8-2.7c10.6,0,19.1,8.5,19.1,19.1c0,6-2.7,11.2-6.9,14.7
		C257.1,118.6,260.3,138.4,258,159.4z"/>
	<path class="st0" d="M89.4,176c2.2-11.5,5.7-22.6,10.5-33.4c-4.1-3.2-6.8-8.1-7.3-13.6c-9.1,1-18.1,2-27.1,3c0,0.1,0,0.1,0,0.2
		c0,9.2-6.5,16.9-15.2,18.7c2.4,25.5,11.8,47.9,29.1,66.7c2.1-1.9,4.8-3.4,7.7-4.2C86.2,200.9,87,188.4,89.4,176z"/>
	
		<ellipse transform="matrix(0.3827 -0.9239 0.9239 0.3827 -93.5588 124.4499)" class="st0" cx="46.3" cy="132.2" rx="8.1" ry="8.1"/>
	
		<ellipse transform="matrix(0.9732 -0.2298 0.2298 0.9732 -48.0705 54.3773)" class="st0" cx="209.5" cy="233.6" rx="8.1" ry="8.1"/>
	<ellipse transform="matrix(0.9732 -0.2298 0.2298 0.9732 -50.8214 27.3326)" class="st0" cx="92" cy="231.9" rx="8.1" ry="8.1"/>
</g>
<g>
	<path class="st1" d="M-278.6,295.9c-38.9,0-75.4-15.1-102.8-42.6c-27.5-27.5-42.6-64-42.6-102.9s15.1-75.3,42.6-102.8
		S-317.4,5-278.6,5s75.4,15.1,102.8,42.6c27.5,27.5,42.6,64,42.6,102.8s-15.1,75.4-42.6,102.8C-203.2,280.8-239.7,295.9-278.6,295.9
		z M-278.6,14.3c-75,0-136.1,61.1-136.1,136.1s61.1,136.1,136.1,136.1s136.1-61.1,136.1-136.1S-203.5,14.3-278.6,14.3z"/>
</g>
<g>
	<path class="st1" d="M-187,103.2c4-3.3,6.5-8.2,6.5-13.8c0-9.9-8-17.9-17.9-17.9c-3.4,0-6.5,0.9-9.2,2.5c-0.5-0.3-1-0.7-1.4-1.1
		c1.3-2.5,2.1-5.3,2.1-8.3c0-9.9-8-17.9-17.9-17.9c-5.6,0-10.6,2.6-13.9,6.6c-9.8-4.2-20-6.7-30.7-7.6c-17.1-1.4-33.4,1.2-48.9,8.1
		c-3.2-4.6-8.6-7.7-14.7-7.7c-9.9,0-17.9,8-17.9,17.9c0,3.7,1.1,7.1,3,9.9c-1.9,1.9-3.8,3.8-5.5,5.8c-0.6,0.7-0.9,2.3-0.6,3.1
		c0.4,0.9,1.7,1.8,2.6,1.9s2.1-0.7,2.9-1.5c1.6-1.6,3.2-3.3,4.8-4.9c3,2.4,6.7,3.7,10.7,3.7c7.1,0,13.2-4.1,16.1-10.1
		c7.7,2.5,15,5.7,22.1,9.5c-0.8,2-1.2,4.2-1.2,6.4c0,3.4,1,6.6,2.6,9.4c-5.2,4.8-9.9,10-14.3,15.6c-2.2-1-4.7-1.6-7.3-1.6
		c-8.1,0-14.9,5.3-17.1,12.7c-9.2,0.4-18.3,1.3-27.3,3c-1.6-4.1-4.7-7.4-8.6-9.4c2.3-7.2,5.4-14,9.3-20.4c1.3-2.1,1-3.8-0.6-4.8
		c-1.8-1.1-3.3-0.6-4.7,1.7c-4.2,6.9-7.5,14.1-9.9,21.8c-0.7-0.1-1.4-0.1-2.2-0.1c-9.9,0-17.9,8-17.9,17.9c0,9,6.7,16.5,15.4,17.7
		c0.1,1.6,0.1,3.2,0.3,4.7c2.6,24.2,12.3,45,29.3,62.2c-1.4,2.5-2.1,5.4-2.1,8.5c0,9.9,8,17.9,17.9,17.9c5.3,0,10-2.3,13.3-5.9
		c10.6,5,21.7,7.9,33.4,8.8c17.2,1.4,33.6-1.2,49.2-8.1c3.3,4.2,8.4,6.9,14.1,6.9c9.9,0,17.9-8,17.9-17.9c0-3.3-0.9-6.4-2.5-9
		c16.9-16.6,27.1-36.7,29.9-60.6C-175.7,139.2-178.7,120.6-187,103.2z M-333,71.7c-4.2,0-7.6-3.4-7.6-7.6s3.4-7.6,7.6-7.6
		s7.6,3.4,7.6,7.6S-328.8,71.7-333,71.7z M-198.4,81.8c4.2,0,7.6,3.4,7.6,7.6s-3.4,7.6-7.6,7.6c-4.2,0-7.6-3.4-7.6-7.6
		C-206,85.2-202.6,81.8-198.4,81.8z M-224.8,57.1c4.2,0,7.6,3.4,7.6,7.6s-3.4,7.6-7.6,7.6s-7.6-3.4-7.6-7.6
		C-232.4,60.5-229,57.1-224.8,57.1z M-224.8,82.6c4.6,0,8.9-1.8,12-4.7c0.1,0.1,0.3,0.3,0.4,0.4c-2.5,3.1-3.9,6.9-3.9,11.2
		c0,6.1,3,11.4,7.6,14.6c-3.7,11-8.4,21.6-14.1,31.8c-2.1-0.8-4.3-1.3-6.7-1.3c-1.5,0-3,0.2-4.4,0.6c-7.5-14.4-17.1-27.2-29-38.2
		c1.6-2.7,2.5-5.8,2.5-9.1c0-2.2-0.4-4.3-1.1-6.3c6.6-3.6,13.4-6.6,20.5-9C-237.9,78.5-231.8,82.6-224.8,82.6z M-221.7,152.4
		c0,4.2-3.4,7.6-7.6,7.6c-4.2,0-7.6-3.4-7.6-7.6s3.4-7.6,7.6-7.6C-225.1,144.8-221.7,148.2-221.7,152.4z M-315.2,65.9
		c0.1-0.6,0.1-1.2,0.1-1.8c0-1.6-0.2-3.1-0.6-4.6c13.6-6,27.9-8.5,42.8-7.8c10.8,0.6,21.3,2.9,31.2,7c-0.6,1.8-1,3.8-1,5.8
		c0,0.6,0,1.3,0.1,1.9c-7.6,2.6-14.9,5.8-21.9,9.6c-3.3-3.9-8.2-6.3-13.6-6.3c-5.4,0-10.2,2.4-13.5,6.2
		C-299.2,72-307,68.6-315.2,65.9z M-270.5,87.8c0,4.2-3.4,7.6-7.6,7.6c-4.2,0-7.6-3.4-7.6-7.6s3.4-7.6,7.6-7.6
		C-273.9,80.2-270.5,83.6-270.5,87.8z M-290.1,102.5c0.3-0.3,0.6-0.5,0.8-0.8c3.1,2.4,6.9,3.9,11.1,3.9c4.3,0,8.3-1.5,11.4-4.1
		c11.1,10.5,20.3,22.5,27.4,36.1c-1.6,1.1-3.1,2.5-4.3,4.1c-16.8-7.9-34.4-13.2-52.8-15.9c-0.3,0-0.6-0.1-0.9-0.1
		c-0.7-3.7-2.5-7-5.1-9.6C-298.8,111.5-294.6,106.9-290.1,102.5z M-315,121.4c4.2,0,7.6,3.4,7.6,7.6s-3.4,7.6-7.6,7.6
		s-7.6-3.4-7.6-7.6C-322.6,124.8-319.2,121.4-315,121.4z M-383.6,133.4c0-4.2,3.4-7.6,7.6-7.6s7.6,3.4,7.6,7.6s-3.4,7.6-7.6,7.6
		S-383.6,137.6-383.6,133.4z M-372.3,150.9c8.1-1.7,14.2-8.9,14.2-17.5c0-0.1,0-0.1,0-0.2c8.5-0.9,16.9-1.9,25.4-2.8
		c0.4,5.1,3,9.7,6.8,12.7c-4.5,10.1-7.7,20.5-9.8,31.3c-2.2,11.6-3,23.3-2.2,35c-2.7,0.7-5.2,2.1-7.2,3.9
		C-361.3,195.7-370.1,174.8-372.3,150.9z M-333.3,234.3c-4.2,0-7.6-3.4-7.6-7.6c0-4.2,3.4-7.6,7.6-7.6c4.2,0,7.6,3.4,7.6,7.6
		C-325.7,230.9-329.1,234.3-333.3,234.3z M-331.8,208.9c-1.3-21.9,2.4-42.9,11.3-62.9c1.7,0.6,3.6,0.9,5.6,0.9
		c8.9,0,16.2-6.5,17.6-14.9c1.7,0.2,3.3,0.5,5,0.8c15.9,2.9,31.2,7.7,45.9,14.5c-0.5,1.6-0.8,3.3-0.8,5.1c0,4.7,1.8,8.9,4.7,12.1
		c-10.4,12.4-22.2,23.3-35.4,32.7c-12.3,8.7-25.5,15.8-39.4,21.3C-320.1,213.2-325.5,209.4-331.8,208.9z M-223.3,235.9
		c-4.2,0-7.6-3.4-7.6-7.6s3.4-7.6,7.6-7.6s7.6,3.4,7.6,7.6S-219.1,235.9-223.3,235.9z M-192.6,187.7c-4.9,10.1-11.3,19.1-19.2,26.9
		c-1.8-1.5-3.9-2.7-6.2-3.4c0.3-4.1,0.3-8.1,0.5-12.2c0.1-2.1-1.2-3.4-3-3.4c-1.9,0-3,1.2-3.1,3.3c-0.2,3.8-0.3,7.7-0.5,11.5
		c-9.4,0.5-16.9,8.3-16.9,17.8c0,1.9,0.3,3.7,0.9,5.5c-25.5,10.8-50.9,10.6-76.4-0.5c0.8-2,1.3-4.3,1.3-6.6c0-0.7,0-1.4-0.1-2.1
		c9.7-3.8,19.1-8.4,28.1-13.7c19.1-11.3,35.7-25.5,49.8-42.5c2.5,1.3,5.3,2,8.3,2c0.7,0,1.4,0,2-0.1c0.6,3.3,1.3,6.6,1.9,9.9
		c0.3,1.5,0.6,3,2.4,3.4c2.2,0.5,4.2-1.1,3.8-3.5c-0.7-3.9-1.5-7.7-2.3-11.5c1.9-0.9,3.5-2.1,4.9-3.6c8.3,6,16.1,12.6,23.4,19.8
		C-192.1,185.7-192,186.4-192.6,187.7z M-183.7,153.7c-0.6,8.3-2.2,16.4-5,24.3c-0.2,0.5-0.4,1-0.6,1.6c-3.8-3.4-7.5-7-11.4-10.2
		c-4-3.3-8.2-6.4-12.4-9.6c1-2.3,1.6-4.8,1.6-7.4c0-5.3-2.3-10.1-6-13.3c5.8-10.3,10.7-21.1,14.4-32.4c1.5,0.4,3,0.6,4.6,0.6
		c2.1,0,4.1-0.4,6-1C-185.3,121.2-182.5,137-183.7,153.7z"/>
</g>
</svg>
