<?xml version="1.0" encoding="utf-8"?>
<!-- Generator: Adobe Illustrator 27.2.0, SVG Export Plug-In . SVG Version: 6.00 Build 0)  -->
<svg version="1.1" id="Capa_1" xmlns="http://www.w3.org/2000/svg" xmlns:xlink="http://www.w3.org/1999/xlink" x="0px" y="0px"
	 viewBox="0 0 300 300" style="enable-background:new 0 0 300 300;" xml:space="preserve">
<style type="text/css">
	.st0{fill:#FFFFFF;}
</style>
<g>
	<path class="st0" d="M-278.6,295.9c-38.9,0-75.4-15.1-102.8-42.6c-27.5-27.5-42.6-64-42.6-102.9s15.1-75.3,42.6-102.8
		S-317.4,5-278.6,5s75.4,15.1,102.8,42.6c27.5,27.5,42.6,64,42.6,102.8s-15.1,75.4-42.6,102.8C-203.2,280.8-239.7,295.9-278.6,295.9
		z M-278.6,14.3c-75,0-136.1,61.1-136.1,136.1s61.1,136.1,136.1,136.1s136.1-61.1,136.1-136.1S-203.5,14.3-278.6,14.3z"/>
</g>
<g>
	<path class="st0" d="M-187,103.2c4-3.3,6.5-8.2,6.5-13.8c0-9.9-8-17.9-17.9-17.9c-3.4,0-6.5,0.9-9.2,2.5c-0.5-0.3-1-0.7-1.4-1.1
		c1.3-2.5,2.1-5.3,2.1-8.3c0-9.9-8-17.9-17.9-17.9c-5.6,0-10.6,2.6-13.9,6.6c-9.8-4.2-20-6.7-30.7-7.6c-17.1-1.4-33.4,1.2-48.9,8.1
		c-3.2-4.6-8.6-7.7-14.7-7.7c-9.9,0-17.9,8-17.9,17.9c0,3.7,1.1,7.1,3,9.9c-1.9,1.9-3.8,3.8-5.5,5.8c-0.6,0.7-0.9,2.3-0.6,3.1
		c0.4,0.9,1.7,1.8,2.6,1.9s2.1-0.7,2.9-1.5c1.6-1.6,3.2-3.3,4.8-4.9c3,2.4,6.7,3.7,10.7,3.7c7.1,0,13.2-4.1,16.1-10.1
		c7.7,2.5,15,5.7,22.1,9.5c-0.8,2-1.2,4.2-1.2,6.4c0,3.4,1,6.6,2.6,9.4c-5.2,4.8-9.9,10-14.3,15.6c-2.2-1-4.7-1.6-7.3-1.6
		c-8.1,0-14.9,5.3-17.1,12.7c-9.2,0.4-18.3,1.3-27.3,3c-1.6-4.1-4.7-7.4-8.6-9.4c2.3-7.2,5.4-14,9.3-20.4c1.3-2.1,1-3.8-0.6-4.8
		c-1.8-1.1-3.3-0.6-4.7,1.7c-4.2,6.9-7.5,14.1-9.9,21.8c-0.7-0.1-1.4-0.1-2.2-0.1c-9.9,0-17.9,8-17.9,17.9c0,9,6.7,16.5,15.4,17.7
		c0.1,1.6,0.1,3.2,0.3,4.7c2.6,24.2,12.3,45,29.3,62.2c-1.4,2.5-2.1,5.4-2.1,8.5c0,9.9,8,17.9,17.9,17.9c5.3,0,10-2.3,13.3-5.9
		c10.6,5,21.7,7.9,33.4,8.8c17.2,1.4,33.6-1.2,49.2-8.1c3.3,4.2,8.4,6.9,14.1,6.9c9.9,0,17.9-8,17.9-17.9c0-3.3-0.9-6.4-2.5-9
		c16.9-16.6,27.1-36.7,29.9-60.6C-175.7,139.2-178.7,120.6-187,103.2z M-333,71.7c-4.2,0-7.6-3.4-7.6-7.6s3.4-7.6,7.6-7.6
		s7.6,3.4,7.6,7.6S-328.8,71.7-333,71.7z M-198.4,81.8c4.2,0,7.6,3.4,7.6,7.6s-3.4,7.6-7.6,7.6c-4.2,0-7.6-3.4-7.6-7.6
		C-206,85.2-202.6,81.8-198.4,81.8z M-224.8,57.1c4.2,0,7.6,3.4,7.6,7.6s-3.4,7.6-7.6,7.6s-7.6-3.4-7.6-7.6
		C-232.4,60.5-229,57.1-224.8,57.1z M-224.8,82.6c4.6,0,8.9-1.8,12-4.7c0.1,0.1,0.3,0.3,0.4,0.4c-2.5,3.1-3.9,6.9-3.9,11.2
		c0,6.1,3,11.4,7.6,14.6c-3.7,11-8.4,21.6-14.1,31.8c-2.1-0.8-4.3-1.3-6.7-1.3c-1.5,0-3,0.2-4.4,0.6c-7.5-14.4-17.1-27.2-29-38.2
		c1.6-2.7,2.5-5.8,2.5-9.1c0-2.2-0.4-4.3-1.1-6.3c6.6-3.6,13.4-6.6,20.5-9C-237.9,78.5-231.8,82.6-224.8,82.6z M-221.7,152.4
		c0,4.2-3.4,7.6-7.6,7.6c-4.2,0-7.6-3.4-7.6-7.6s3.4-7.6,7.6-7.6C-225.1,144.8-221.7,148.2-221.7,152.4z M-315.2,65.9
		c0.1-0.6,0.1-1.2,0.1-1.8c0-1.6-0.2-3.1-0.6-4.6c13.6-6,27.9-8.5,42.8-7.8c10.8,0.6,21.3,2.9,31.2,7c-0.6,1.8-1,3.8-1,5.8
		c0,0.6,0,1.3,0.1,1.9c-7.6,2.6-14.9,5.8-21.9,9.6c-3.3-3.9-8.2-6.3-13.6-6.3s-10.2,2.4-13.5,6.2C-299.2,72-307,68.6-315.2,65.9z
		 M-270.5,87.8c0,4.2-3.4,7.6-7.6,7.6s-7.6-3.4-7.6-7.6s3.4-7.6,7.6-7.6C-273.9,80.2-270.5,83.6-270.5,87.8z M-290.1,102.5
		c0.3-0.3,0.6-0.5,0.8-0.8c3.1,2.4,6.9,3.9,11.1,3.9c4.3,0,8.3-1.5,11.4-4.1c11.1,10.5,20.3,22.5,27.4,36.1
		c-1.6,1.1-3.1,2.5-4.3,4.1c-16.8-7.9-34.4-13.2-52.8-15.9c-0.3,0-0.6-0.1-0.9-0.1c-0.7-3.7-2.5-7-5.1-9.6
		C-298.8,111.5-294.6,106.9-290.1,102.5z M-315,121.4c4.2,0,7.6,3.4,7.6,7.6s-3.4,7.6-7.6,7.6s-7.6-3.4-7.6-7.6
		C-322.6,124.8-319.2,121.4-315,121.4z M-383.6,133.4c0-4.2,3.4-7.6,7.6-7.6s7.6,3.4,7.6,7.6s-3.4,7.6-7.6,7.6
		S-383.6,137.6-383.6,133.4z M-372.3,150.9c8.1-1.7,14.2-8.9,14.2-17.5c0-0.1,0-0.1,0-0.2c8.5-0.9,16.9-1.9,25.4-2.8
		c0.4,5.1,3,9.7,6.8,12.7c-4.5,10.1-7.7,20.5-9.8,31.3c-2.2,11.6-3,23.3-2.2,35c-2.7,0.7-5.2,2.1-7.2,3.9
		C-361.3,195.7-370.1,174.8-372.3,150.9z M-333.3,234.3c-4.2,0-7.6-3.4-7.6-7.6c0-4.2,3.4-7.6,7.6-7.6s7.6,3.4,7.6,7.6
		C-325.7,230.9-329.1,234.3-333.3,234.3z M-331.8,208.9c-1.3-21.9,2.4-42.9,11.3-62.9c1.7,0.6,3.6,0.9,5.6,0.9
		c8.9,0,16.2-6.5,17.6-14.9c1.7,0.2,3.3,0.5,5,0.8c15.9,2.9,31.2,7.7,45.9,14.5c-0.5,1.6-0.8,3.3-0.8,5.1c0,4.7,1.8,8.9,4.7,12.1
		c-10.4,12.4-22.2,23.3-35.4,32.7c-12.3,8.7-25.5,15.8-39.4,21.3C-320.1,213.2-325.5,209.4-331.8,208.9z M-223.3,235.9
		c-4.2,0-7.6-3.4-7.6-7.6s3.4-7.6,7.6-7.6s7.6,3.4,7.6,7.6S-219.1,235.9-223.3,235.9z M-192.6,187.7c-4.9,10.1-11.3,19.1-19.2,26.9
		c-1.8-1.5-3.9-2.7-6.2-3.4c0.3-4.1,0.3-8.1,0.5-12.2c0.1-2.1-1.2-3.4-3-3.4c-1.9,0-3,1.2-3.1,3.3c-0.2,3.8-0.3,7.7-0.5,11.5
		c-9.4,0.5-16.9,8.3-16.9,17.8c0,1.9,0.3,3.7,0.9,5.5c-25.5,10.8-50.9,10.6-76.4-0.5c0.8-2,1.3-4.3,1.3-6.6c0-0.7,0-1.4-0.1-2.1
		c9.7-3.8,19.1-8.4,28.1-13.7c19.1-11.3,35.7-25.5,49.8-42.5c2.5,1.3,5.3,2,8.3,2c0.7,0,1.4,0,2-0.1c0.6,3.3,1.3,6.6,1.9,9.9
		c0.3,1.5,0.6,3,2.4,3.4c2.2,0.5,4.2-1.1,3.8-3.5c-0.7-3.9-1.5-7.7-2.3-11.5c1.9-0.9,3.5-2.1,4.9-3.6c8.3,6,16.1,12.6,23.4,19.8
		C-192.1,185.7-192,186.4-192.6,187.7z M-183.7,153.7c-0.6,8.3-2.2,16.4-5,24.3c-0.2,0.5-0.4,1-0.6,1.6c-3.8-3.4-7.5-7-11.4-10.2
		c-4-3.3-8.2-6.4-12.4-9.6c1-2.3,1.6-4.8,1.6-7.4c0-5.3-2.3-10.1-6-13.3c5.8-10.3,10.7-21.1,14.4-32.4c1.5,0.4,3,0.6,4.6,0.6
		c2.1,0,4.1-0.4,6-1C-185.3,121.2-182.5,137-183.7,153.7z"/>
</g>
<g>
	<g>
		<g>
			<g>
				<path class="st0" d="M135,135.2c-8.5,0-15.5,6.9-15.5,15.5s6.9,15.5,15.5,15.5c8.5,0,15.5-6.9,15.5-15.5S143.5,135.2,135,135.2z
					 M135,159.6c-4.9,0-8.9-4-8.9-8.9s4-8.9,8.9-8.9c4.9,0,8.9,4,8.9,8.9S139.9,159.6,135,159.6z"/>
			</g>
		</g>
	</g>
	<g>
		<g>
			<g>
				<path class="st0" d="M161.2,74c-9.6,0-17.4,7.8-17.4,17.4s7.8,17.4,17.4,17.4s17.4-7.8,17.4-17.4S170.8,74,161.2,74z
					 M161.2,101.4c-5.5,0-10-4.5-10-10c0-5.5,4.5-10,10-10s10,4.5,10,10C171.2,97,166.8,101.4,161.2,101.4z"/>
			</g>
		</g>
	</g>
	<g>
		<g>
			<g>
				<path class="st0" d="M110.6,92.5c-5.1,0-9.3,4.2-9.3,9.3c0,5.1,4.2,9.3,9.3,9.3c5.1,0,9.3-4.2,9.3-9.3
					C119.9,96.7,115.8,92.5,110.6,92.5z M110.6,107.2c-3,0-5.4-2.4-5.4-5.4s2.4-5.4,5.4-5.4s5.4,2.4,5.4,5.4
					S113.6,107.2,110.6,107.2z"/>
			</g>
		</g>
	</g>
	<g>
		<g>
			<g>
				<path class="st0" d="M227.2,95.9c-6.6,0-11.9,5.3-11.9,11.9s5.3,11.9,11.9,11.9s11.9-5.3,11.9-11.9S233.7,95.9,227.2,95.9z
					 M227.2,114.6c-3.8,0-6.8-3.1-6.8-6.8s3.1-6.8,6.8-6.8s6.8,3.1,6.8,6.8S230.9,114.6,227.2,114.6z"/>
			</g>
		</g>
	</g>
	<g>
		<g>
			<g>
				<path class="st0" d="M150.1,25c-8.5,0-15.5,6.9-15.5,15.5s6.9,15.5,15.5,15.5c8.5,0,15.5-6.9,15.5-15.5S158.7,25,150.1,25z
					 M150.1,49.4c-4.9,0-8.9-4-8.9-8.9s4-8.9,8.9-8.9s8.9,4,8.9,8.9S155.1,49.4,150.1,49.4z"/>
			</g>
		</g>
	</g>
	<g>
		<g>
			<g>
				<path class="st0" d="M65.7,77.8c-9.7,0-17.6,7.9-17.6,17.6s7.9,17.6,17.6,17.6s17.6-7.9,17.6-17.6S75.4,77.8,65.7,77.8z
					 M65.7,105.6c-5.6,0-10.2-4.5-10.2-10.2s4.5-10.2,10.2-10.2s10.2,4.5,10.2,10.2S71.3,105.6,65.7,105.6z"/>
			</g>
		</g>
	</g>
	<g>
		<g>
			<g>
				<path class="st0" d="M206.8,47.9c-7.1,0-12.8,5.7-12.8,12.8s5.7,12.8,12.8,12.8c7.1,0,12.8-5.7,12.8-12.8S213.8,47.9,206.8,47.9
					z M206.8,68.1c-4.1,0-7.4-3.3-7.4-7.4s3.3-7.4,7.4-7.4c4.1,0,7.4,3.3,7.4,7.4S210.8,68.1,206.8,68.1z"/>
			</g>
		</g>
	</g>
	<g>
		<g>
			<g>
				<path class="st0" d="M98.7,40.5c-5.9,0-10.7,4.8-10.7,10.7s4.8,10.7,10.7,10.7s10.7-4.8,10.7-10.7S104.6,40.5,98.7,40.5z
					 M98.7,57.3c-3.4,0-6.1-2.7-6.1-6.1c0-3.4,2.7-6.1,6.1-6.1c3.4,0,6.1,2.7,6.1,6.1C104.8,54.5,102.1,57.3,98.7,57.3z"/>
			</g>
		</g>
	</g>
	<g>
		<g>
			<g>
				<path class="st0" d="M64.2,144.8c-5.6,0-10.1,4.5-10.1,10.1c0,5.6,4.5,10.1,10.1,10.1s10.1-4.5,10.1-10.1
					C74.3,149.3,69.8,144.8,64.2,144.8z M64.2,160.7c-3.2,0-5.8-2.6-5.8-5.8s2.6-5.8,5.8-5.8c3.2,0,5.8,2.6,5.8,5.8
					S67.4,160.7,64.2,160.7z"/>
			</g>
		</g>
	</g>
	<g>
		<g>
			<polygon class="st0" points="174.5,88.2 170.9,80.5 196.7,63.6 199,68.4 			"/>
		</g>
	</g>
	<g>
		<g>
			<polygon class="st0" points="155.5,77.7 147,53.3 152.4,53 164,77.2 			"/>
		</g>
	</g>
	<g>
		<g>
			<polygon class="st0" points="108,94.6 100,58.7 105.2,57.5 112.5,93.6 			"/>
		</g>
	</g>
	<g>
		<g>
			<polygon class="st0" points="102.3,102.1 74,102.3 75.6,97.2 103.7,97.7 			"/>
		</g>
	</g>
	<g>
		<g>
			<polygon class="st0" points="71,149.6 66.5,146.7 104.8,105.9 108.6,108.5 			"/>
		</g>
	</g>
	<g>
		<g>
			<polygon class="st0" points="126.5,144.4 113,108.9 116.9,106.4 131,141.6 			"/>
		</g>
	</g>
	<g>
		<g>
			<polygon class="st0" points="119.3,100 117,96 144.1,91.7 148.3,99.2 			"/>
		</g>
	</g>
	<g>
		<g>
			<polygon class="st0" points="141.6,140.6 136.5,138.9 155.8,103.5 163.9,106.2 			"/>
		</g>
	</g>
	<g>
		<g>
			<polygon class="st0" points="73.1,158.5 73,153.2 123.2,150.6 123.3,155.9 			"/>
		</g>
	</g>
	<g>
		<g>
			<polygon class="st0" points="105,195.6 101.2,191.9 129.8,161.1 133.5,164.8 			"/>
		</g>
	</g>
	<g>
		<g>
			<polygon class="st0" points="219.4,109.9 173.2,100.4 175.6,92.2 220.9,104.8 			"/>
		</g>
	</g>
	<g>
		<g>
			<path class="st0" d="M180.4,277c-5.4,0-9.8,4.4-9.8,9.8c0,5.4,4.4,9.8,9.8,9.8s9.8-4.4,9.8-9.8C190.2,281.4,185.8,277,180.4,277z
				 M180.4,292.4c-3.1,0-5.6-2.5-5.6-5.6c0-3.1,2.5-5.6,5.6-5.6s5.6,2.5,5.6,5.6C186.1,289.9,183.5,292.4,180.4,292.4z"/>
		</g>
	</g>
	<g>
		<g>
			<g>
				<path class="st0" d="M161.6,242.5c-8,0-14.4,6.5-14.4,14.4s6.5,14.4,14.4,14.4c8,0,14.4-6.5,14.4-14.4S169.5,242.5,161.6,242.5z
					 M161.6,265.2c-4.6,0-8.3-3.7-8.3-8.3c0-4.6,3.7-8.3,8.3-8.3c4.6,0,8.3,3.7,8.3,8.3C169.9,261.5,166.1,265.2,161.6,265.2z"/>
			</g>
		</g>
	</g>
	<g>
		<g>
			<g>
				<path class="st0" d="M91.9,180.9c-9.8,0-17.7,7.9-17.7,17.7c0,9.8,7.9,17.7,17.7,17.7s17.7-7.9,17.7-17.7
					C109.6,188.8,101.7,180.9,91.9,180.9z M91.9,208.7c-5.6,0-10.2-4.6-10.2-10.2c0-5.6,4.6-10.2,10.2-10.2
					c5.6,0,10.2,4.6,10.2,10.2C102.1,204.2,97.6,208.7,91.9,208.7z"/>
			</g>
		</g>
	</g>
	<g>
		<polygon class="st0" points="94.6,238.6 89.3,238.3 90.4,212.3 95.7,212.6 		"/>
	</g>
	<g>
		<rect x="73.3" y="158.6" transform="matrix(0.7846 -0.62 0.62 0.7846 -91.9245 84.7276)" class="st0" width="5.3" height="32.1"/>
	</g>
	<g>
		<path class="st0" d="M65.1,108.5l-7.1-0.8l-0.3-0.3c-0.3,8.2-1.5,37.9,0.4,42.3l3.4-1.1l4.1-0.3C63.5,143.6,64.9,115.6,65.1,108.5
			z"/>
	</g>
	<g>
		<path class="st0" d="M91.6,56l-1.1-4.4c-0.6,0.4-1.2,0.8-1.9,1.2c-11.2,7.5-19.2,17.6-24.4,29.1l6.3,0.5l1.2,1
			c4.6-9.6,11.5-18,21-24.3c0.6-0.4,1.1-0.7,1.7-1.1L91.6,56z"/>
	</g>
	<g>
		<path class="st0" d="M138.7,43.4l-0.5-3.9l1.8-3.7c-12.9,0.4-25.4,3.4-37.6,9.2l4.2,2.8v3.6C117,46.6,127.7,44,138.7,43.4z"/>
	</g>
	<g>
		<path class="st0" d="M196.2,57.7l3-3.9l2.9-1.2c-2.8-1.8-5.7-3.4-8.8-4.8c-10.6-4.9-21.1-8.4-31.5-10.3l-1,5.8
			c0,0-0.3,0.6-0.9,1.5c10,1.7,20,5,30.2,9.8C192.2,55.5,194.2,56.6,196.2,57.7z"/>
	</g>
	<g>
		<g>
			<path class="st0" d="M224.7,98.9l7.2,1.8c-0.9-8-3-15.5-6.4-22.4c-2.6-5.1-5.8-9.8-9.7-14.1l-0.2,1.6l-4.7,4.1
				c7.2,8.2,11.7,18.2,13.3,29.4L224.7,98.9z"/>
		</g>
		<g>
			<path class="st0" d="M249,163.6c-1.2-1.9-2.5-3.8-3.8-5.7c-3-4.5-6.1-9.1-8.6-13.9c-2.5-4.7-4-10.1-5.5-15.4l0-0.1
				c-0.4-1.4-0.4-3.3,0.1-6c0.5-2.8,0.8-5.6,1-8.4l-2.2,1.3l-5.4,0.5c-0.2,1.8-0.4,3.5-0.7,5.3c-0.4,2.4-0.9,6,0.1,9.3l0,0.1
				c1.6,5.7,3.3,11.5,6.1,16.9c2.7,5.1,5.9,9.9,9,14.5c1.2,1.8,2.5,3.7,3.7,5.6c0.3,0.4,0.5,0.7,0.6,1c-0.2,0.1-0.4,0.3-0.8,0.6
				c-2.2,1.6-4.7,3-7.2,4.4l-0.6,0.3c-4.3,2.4-5.1,5.9-5.1,8.4c0,0.8,0,1.6,0,2.4c0,1.6,0,3.3,0.1,5c0,0.1,0,0.3,0,0.3
				c0,0-0.1,0-0.1,0.1c-4.4,3.1-5.6,7.1-3.7,11.7c-3.8,2.7-4.3,7.3-4.6,10c-0.2,2.1-0.4,4.1-0.7,6.2c-0.2,2-0.4,4-0.7,6
				c-0.2,1.7-0.8,2.3-2.4,2.6c-2.7,0.4-5.7,0.9-8.5,0.8c-7.2-0.3-12.7-0.8-17.7-1.5c-8-1.2-14.9,1.7-19.9,8.2
				c-3.3,4.3-6.1,8.8-8.4,12.8l6.7,3.3c2.2-3.7,4.7-7.8,7.6-11.6c3.4-4.5,7.5-6.2,12.8-5.4c6.7,1,13.4,1.4,18.5,1.6
				c3.5,0.2,7-0.4,10-0.9c5-0.8,8.2-4.2,8.7-9.2c0.2-2,0.4-4,0.6-6c0.2-2.1,0.5-4.2,0.7-6.2c0.4-3.9,0.9-4.6,2.4-5
				c0.7-0.2,1.3-0.6,1.6-0.8c0,0,0.1-0.1,0.1-0.1c0.9-0.5,1.5-1.3,1.8-2.3c0.3-1,0.1-2-0.4-2.9l-0.4-0.6c-0.2-0.4-0.4-0.7-0.6-0.9
				c-1.4-2.2-1.1-2.5,0.5-3.7c3.2-2.3,3.4-5.2,3.2-7.1c-0.1-1.4-0.1-2.9-0.1-4.4c0-0.8,0-1.7,0-2.5c0-0.6,0-1,1.3-1.8l0.6-0.3
				c2.6-1.5,5.3-3,7.9-4.9C252.3,171.3,251.7,167.9,249,163.6z"/>
		</g>
	</g>
	<g>
		<g>
			<path class="st0" d="M90.9,235.7c-5.4,0-9.8,4.4-9.8,9.8s4.4,9.8,9.8,9.8s9.8-4.4,9.8-9.8S96.3,235.7,90.9,235.7z M90.9,251.1
				c-3.1,0-5.6-2.5-5.6-5.6c0-3.1,2.5-5.6,5.6-5.6c3.1,0,5.6,2.5,5.6,5.6C96.6,248.5,94,251.1,90.9,251.1z"/>
		</g>
	</g>
	<g>
		
			<rect x="169.8" y="262.8" transform="matrix(0.8682 -0.4961 0.4961 0.8682 -112.1699 121.3709)" class="st0" width="5.3" height="18.2"/>
	</g>
	<path class="st0" d="M150,4.4c-80,0-145,65-145,145c0,80,65,145,145,145c8.5,0,16.8-0.7,24.8-2.1l-2.4-5.5l1.2-1.9
		c-7.7,1.3-15.6,2-23.6,2c-75.8,0-137.5-61.7-137.5-137.5S74.2,12,150,12s137.5,61.7,137.5,137.5c0,63.2-42.9,116.6-101.1,132.6
		l0.7,1.1l0.9,3.6l-0.5,2.7C249.3,273,295,216.4,295,149.4C295,69.5,230,4.4,150,4.4z"/>
</g>
</svg>
