<?xml version="1.0" encoding="utf-8"?>


<svg version="1.1" id="Capa_1" xmlns="http://www.w3.org/2000/svg" xmlns:xlink="http://www.w3.org/1999/xlink" x="0px" y="0px"
	 viewBox="0 0 201.5 282" style="enable-background:new 0 0 201.5 282;" xml:space="preserve">
<style type="text/css">
	.st0{fill:#0033A0;}
	.st1{fill:#e72b1d;}
	.st2{fill:#FFFFFF;}


</style>
<g>
	<path class="st0" d="M0.7,189v64.3c0,14.3,11.6,25.9,25.9,25.9h148.2c14.3,0,25.9-11.6,25.9-25.9V189H0.7z"/>
	<path class="st1" d="M0.7,189.8V28.7c0-14.3,11.6-25.9,25.9-25.9h148.2c14.3,0,25.9,11.6,25.9,25.9v161.1H0.7z"/>
	<g>
		<path class="st2" d="M19.3,221.1l0.7-0.7c0.6,0.6,1.5,1.1,2.4,1.1c1.1,0,1.8-0.6,1.8-1.4c0-0.9-0.6-1.2-1.4-1.5l-1.2-0.5
			c-0.8-0.3-1.7-0.9-1.7-2.2c0-1.3,1.1-2.3,2.7-2.3c1,0,1.9,0.4,2.5,1.1l-0.6,0.7c-0.5-0.5-1.1-0.8-1.9-0.8c-1,0-1.6,0.5-1.6,1.2
			c0,0.8,0.7,1.1,1.4,1.4l1.2,0.5c1,0.4,1.8,1,1.8,2.3c0,1.3-1.1,2.4-2.9,2.4C21.1,222.4,20,221.9,19.3,221.1z"/>
		<path class="st2" d="M26.6,213.9c0-0.4,0.3-0.7,0.7-0.7s0.7,0.3,0.7,0.7c0,0.4-0.3,0.7-0.7,0.7S26.6,214.3,26.6,213.9z
			 M26.8,215.9h1.1v6.3h-1.1V215.9z"/>
		<path class="st2" d="M29.2,221.5l0.5-0.7c0.5,0.4,1.1,0.7,1.9,0.7c0.8,0,1.2-0.4,1.2-1c0-0.7-0.7-0.9-1.4-1.2
			c-0.9-0.3-1.9-0.8-1.9-1.8c0-1,0.8-1.8,2.2-1.8c0.8,0,1.5,0.3,2,0.7l-0.5,0.7c-0.4-0.3-0.9-0.6-1.4-0.6c-0.8,0-1.2,0.4-1.2,0.9
			c0,0.6,0.7,0.8,1.4,1.1c0.9,0.3,1.9,0.7,1.9,1.9c0,1-0.8,1.9-2.3,1.9C30.7,222.4,29.8,222,29.2,221.5z"/>
		<path class="st2" d="M35.3,220.3v-3.5h-0.9V216l1-0.1l0.1-1.8h0.9v1.8h1.7v0.9h-1.7v3.5c0,0.8,0.2,1.2,1,1.2
			c0.2,0,0.5-0.1,0.7-0.2l0.2,0.8c-0.4,0.1-0.8,0.2-1.2,0.2C35.8,222.4,35.3,221.5,35.3,220.3z"/>
		<path class="st2" d="M38.9,219.1c0-2.1,1.4-3.3,2.8-3.3c1.6,0,2.5,1.2,2.5,3c0,0.2,0,0.5,0,0.6h-4.3c0.1,1.3,0.9,2.2,2.1,2.2
			c0.6,0,1.1-0.2,1.6-0.5l0.4,0.7c-0.6,0.4-1.2,0.7-2.1,0.7C40.2,222.4,38.9,221.1,38.9,219.1z M43.3,218.5c0-1.3-0.6-2-1.6-2
			c-0.9,0-1.7,0.7-1.8,2H43.3z"/>
		<path class="st2" d="M45.8,215.9h0.9l0.1,0.9h0c0.6-0.6,1.2-1.1,2-1.1c1,0,1.5,0.5,1.7,1.2c0.7-0.7,1.3-1.2,2.1-1.2
			c1.3,0,1.9,0.9,1.9,2.5v4h-1.1v-3.9c0-1.2-0.4-1.7-1.2-1.7c-0.5,0-1,0.3-1.6,1v4.6h-1.1v-3.9c0-1.2-0.4-1.7-1.2-1.7
			c-0.5,0-1,0.3-1.6,1v4.6h-1.1V215.9z"/>
		<path class="st2" d="M56.2,220.6c0-1.4,1.2-2.1,3.9-2.4c0-0.8-0.3-1.6-1.3-1.6c-0.7,0-1.4,0.3-1.9,0.7l-0.4-0.7
			c0.6-0.4,1.5-0.8,2.5-0.8c1.5,0,2.2,1,2.2,2.6v3.9h-0.9l-0.1-0.8h0c-0.6,0.5-1.3,0.9-2.1,0.9C57,222.4,56.2,221.7,56.2,220.6z
			 M60.1,220.7v-1.8c-2.1,0.3-2.8,0.8-2.8,1.6c0,0.7,0.5,1,1.1,1C59,221.5,59.5,221.2,60.1,220.7z"/>
		<path class="st2" d="M65.3,219.1c0-2.1,1.3-3.3,2.7-3.3c0.7,0,1.2,0.3,1.8,0.7l0-1.1v-2.4h1.1v9.3H70l-0.1-0.7h0
			c-0.5,0.5-1.2,0.9-1.9,0.9C66.3,222.4,65.3,221.2,65.3,219.1z M69.8,220.6v-3.3c-0.5-0.5-1-0.7-1.5-0.7c-1,0-1.8,1-1.8,2.4
			c0,1.5,0.6,2.4,1.7,2.4C68.7,221.5,69.2,221.2,69.8,220.6z"/>
		<path class="st2" d="M72.5,219.1c0-2.1,1.4-3.3,2.8-3.3c1.6,0,2.5,1.2,2.5,3c0,0.2,0,0.5,0,0.6h-4.3c0.1,1.3,0.9,2.2,2.1,2.2
			c0.6,0,1.1-0.2,1.6-0.5l0.4,0.7c-0.6,0.4-1.2,0.7-2.1,0.7C73.8,222.4,72.5,221.1,72.5,219.1z M76.9,218.5c0-1.3-0.6-2-1.6-2
			c-0.9,0-1.7,0.7-1.8,2H76.9z"/>
		<path class="st2" d="M81.6,218c0-2.8,1.7-4.4,3.9-4.4c1.2,0,2,0.5,2.5,1.1l-0.6,0.7c-0.4-0.4-1-0.8-1.8-0.8
			c-1.7,0-2.8,1.3-2.8,3.4c0,2.1,1,3.5,2.8,3.5c0.6,0,1.2-0.2,1.5-0.5v-2.2h-1.8v-0.9h2.8v3.6c-0.5,0.6-1.5,1-2.6,1
			C83.2,222.4,81.6,220.7,81.6,218z"/>
		<path class="st2" d="M89.6,219.1c0-2.1,1.4-3.3,2.8-3.3c1.6,0,2.5,1.2,2.5,3c0,0.2,0,0.5,0,0.6h-4.3c0.1,1.3,0.9,2.2,2.1,2.2
			c0.6,0,1.1-0.2,1.6-0.5l0.4,0.7c-0.6,0.4-1.2,0.7-2.1,0.7C90.9,222.4,89.6,221.1,89.6,219.1z M94,218.5c0-1.3-0.6-2-1.6-2
			c-0.9,0-1.7,0.7-1.8,2H94z"/>
		<path class="st2" d="M95.8,221.5l0.5-0.7c0.5,0.4,1.1,0.7,1.9,0.7c0.8,0,1.2-0.4,1.2-1c0-0.7-0.7-0.9-1.4-1.2
			c-0.9-0.3-1.9-0.8-1.9-1.8c0-1,0.8-1.8,2.2-1.8c0.8,0,1.5,0.3,2,0.7l-0.5,0.7c-0.4-0.3-0.9-0.6-1.4-0.6c-0.8,0-1.2,0.4-1.2,0.9
			c0,0.6,0.7,0.8,1.4,1.1c0.9,0.3,1.9,0.7,1.9,1.9c0,1-0.8,1.9-2.3,1.9C97.3,222.4,96.4,222,95.8,221.5z"/>
		<path class="st2" d="M101.9,220.3v-3.5h-0.9V216l1-0.1l0.1-1.8h0.9v1.8h1.7v0.9H103v3.5c0,0.8,0.2,1.2,1,1.2
			c0.2,0,0.5-0.1,0.7-0.2l0.2,0.8c-0.4,0.1-0.8,0.2-1.2,0.2C102.3,222.4,101.9,221.5,101.9,220.3z"/>
		<path class="st2" d="M105.9,213.9c0-0.4,0.3-0.7,0.7-0.7s0.7,0.3,0.7,0.7c0,0.4-0.3,0.7-0.7,0.7S105.9,214.3,105.9,213.9z
			 M106.1,215.9h1.1v6.3h-1.1V215.9z"/>
		<path class="st2" d="M108.8,219.1c0-2.1,1.4-3.3,2.9-3.3s2.9,1.2,2.9,3.3c0,2.1-1.4,3.3-2.9,3.3S108.8,221.2,108.8,219.1z
			 M113.6,219.1c0-1.4-0.7-2.4-1.8-2.4c-1.1,0-1.8,1-1.8,2.4c0,1.4,0.7,2.4,1.8,2.4C112.8,221.5,113.6,220.5,113.6,219.1z"/>
		<path class="st2" d="M116.3,215.9h0.9l0.1,0.9h0c0.6-0.6,1.3-1.1,2.1-1.1c1.3,0,1.9,0.9,1.9,2.5v4h-1.1v-3.9
			c0-1.2-0.4-1.7-1.2-1.7c-0.6,0-1.1,0.3-1.7,1v4.6h-1.1V215.9z"/>
		<path class="st2" d="M125.6,219.1c0-2.1,1.3-3.3,2.7-3.3c0.7,0,1.2,0.3,1.8,0.7l0-1.1v-2.4h1.1v9.3h-0.9l-0.1-0.7h0
			c-0.5,0.5-1.2,0.9-1.9,0.9C126.6,222.4,125.6,221.2,125.6,219.1z M130.1,220.6v-3.3c-0.5-0.5-1-0.7-1.5-0.7c-1,0-1.8,1-1.8,2.4
			c0,1.5,0.6,2.4,1.7,2.4C129,221.5,129.5,221.2,130.1,220.6z"/>
		<path class="st2" d="M132.8,219.1c0-2.1,1.4-3.3,2.8-3.3c1.6,0,2.5,1.2,2.5,3c0,0.2,0,0.5,0,0.6h-4.3c0.1,1.3,0.9,2.2,2.1,2.2
			c0.6,0,1.1-0.2,1.6-0.5l0.4,0.7c-0.6,0.4-1.2,0.7-2.1,0.7C134.2,222.4,132.8,221.1,132.8,219.1z M137.2,218.5c0-1.3-0.6-2-1.6-2
			c-0.9,0-1.7,0.7-1.8,2H137.2z"/>
		<path class="st2" d="M141.9,218c0-2.8,1.6-4.4,3.8-4.4c1,0,1.8,0.5,2.3,1.1l-0.6,0.7c-0.4-0.5-1-0.8-1.7-0.8
			c-1.6,0-2.7,1.3-2.7,3.4c0,2.1,1,3.5,2.6,3.5c0.8,0,1.4-0.4,2-1l0.6,0.7c-0.7,0.8-1.5,1.2-2.6,1.2
			C143.5,222.4,141.9,220.7,141.9,218z"/>
		<path class="st2" d="M149.4,220.6c0-1.4,1.2-2.1,3.9-2.4c0-0.8-0.3-1.6-1.3-1.6c-0.7,0-1.4,0.3-1.9,0.7l-0.4-0.7
			c0.6-0.4,1.5-0.8,2.5-0.8c1.5,0,2.2,1,2.2,2.6v3.9h-0.9l-0.1-0.8h0c-0.6,0.5-1.3,0.9-2.1,0.9C150.2,222.4,149.4,221.7,149.4,220.6
			z M153.3,220.7v-1.8c-2.1,0.3-2.8,0.8-2.8,1.6c0,0.7,0.5,1,1.1,1C152.1,221.5,152.6,221.2,153.3,220.7z"/>
		<path class="st2" d="M156.3,220.9v-8h1.1v8.1c0,0.3,0.1,0.5,0.3,0.5c0.1,0,0.1,0,0.2,0l0.1,0.8c-0.2,0.1-0.3,0.1-0.6,0.1
			C156.6,222.4,156.3,221.9,156.3,220.9z"/>
		<path class="st2" d="M159.4,213.9c0-0.4,0.3-0.7,0.7-0.7s0.7,0.3,0.7,0.7c0,0.4-0.3,0.7-0.7,0.7S159.4,214.3,159.4,213.9z
			 M159.6,215.9h1.1v6.3h-1.1V215.9z"/>
		<path class="st2" d="M162.4,219.1c0-2.1,1.3-3.3,2.7-3.3c0.7,0,1.2,0.3,1.8,0.7l0-1.1v-2.4h1.1v9.3H167l-0.1-0.7h0
			c-0.5,0.5-1.2,0.9-1.9,0.9C163.4,222.4,162.4,221.2,162.4,219.1z M166.8,220.6v-3.3c-0.5-0.5-1-0.7-1.5-0.7c-1,0-1.8,1-1.8,2.4
			c0,1.5,0.6,2.4,1.7,2.4C165.8,221.5,166.3,221.2,166.8,220.6z"/>
		<path class="st2" d="M169.7,220.6c0-1.4,1.2-2.1,3.9-2.4c0-0.8-0.3-1.6-1.3-1.6c-0.7,0-1.4,0.3-1.9,0.7l-0.4-0.7
			c0.6-0.4,1.5-0.8,2.5-0.8c1.5,0,2.2,1,2.2,2.6v3.9h-0.9l-0.1-0.8h0c-0.6,0.5-1.3,0.9-2.1,0.9C170.5,222.4,169.7,221.7,169.7,220.6
			z M173.5,220.7v-1.8c-2.1,0.3-2.8,0.8-2.8,1.6c0,0.7,0.5,1,1.1,1C172.4,221.5,172.9,221.2,173.5,220.7z"/>
		<path class="st2" d="M176.2,219.1c0-2.1,1.3-3.3,2.7-3.3c0.7,0,1.2,0.3,1.8,0.7l0-1.1v-2.4h1.1v9.3h-0.9l-0.1-0.7h0
			c-0.5,0.5-1.2,0.9-1.9,0.9C177.2,222.4,176.2,221.2,176.2,219.1z M180.6,220.6v-3.3c-0.5-0.5-1-0.7-1.5-0.7c-1,0-1.8,1-1.8,2.4
			c0,1.5,0.6,2.4,1.7,2.4C179.6,221.5,180.1,221.2,180.6,220.6z"/>
	</g>
	<g>
		<path class="st2" d="M28.5,232.9h3.2l3.6,6.9l1.4,3h0.1c-0.1-1.5-0.4-3.4-0.4-5v-4.9h3v13.9h-3.2l-3.6-6.9l-1.4-3h-0.1
			c0.1,1.5,0.4,3.4,0.4,5v4.9h-3V232.9z"/>
		<path class="st2" d="M42,240c0-4.6,3-7.3,6.6-7.3c1.8,0,3.2,0.8,4.2,1.8l-1.7,2c-0.7-0.6-1.4-1.1-2.4-1.1c-1.9,0-3.4,1.7-3.4,4.5
			c0,2.9,1.3,4.5,3.4,4.5c1.1,0,2-0.6,2.7-1.3l1.7,2c-1.2,1.3-2.7,2-4.5,2C44.9,247.1,42,244.6,42,240z"/>
		<path class="st2" d="M54.8,231.9h3.1v3.6l-0.1,1.9c0.8-0.7,1.8-1.5,3.3-1.5c2.3,0,3.3,1.6,3.3,4.3v6.6h-3.1v-6.2
			c0-1.5-0.4-2-1.3-2c-0.8,0-1.3,0.4-2,1v7.1h-3.1V231.9z"/>
		<path class="st2" d="M70.6,245c3.4-3.3,5.9-5.6,5.9-7.5c0-1.3-0.7-2-1.9-2c-1,0-1.7,0.7-2.4,1.4l-1.7-1.7c1.3-1.4,2.6-2.1,4.5-2.1
			c2.7,0,4.5,1.7,4.5,4.3c0,2.3-2.1,4.7-4.3,7c0.7-0.1,1.6-0.2,2.3-0.2h2.7v2.6h-9.5V245z"/>
		<path class="st2" d="M88.1,235.9H82v-2.6h9.4v1.9c-3.1,3.8-3.6,6.3-3.8,11.6h-3.1C84.7,242.3,85.5,239.5,88.1,235.9z"/>
		<path class="st2" d="M93.1,245c3.4-3.3,5.9-5.6,5.9-7.5c0-1.3-0.7-2-1.9-2c-1,0-1.7,0.7-2.4,1.4l-1.7-1.7c1.3-1.4,2.6-2.1,4.5-2.1
			c2.7,0,4.5,1.7,4.5,4.3c0,2.3-2.1,4.7-4.3,7c0.7-0.1,1.6-0.2,2.3-0.2h2.7v2.6h-9.5V245z"/>
		<path class="st2" d="M104.4,243.4c0-1.6,1-2.6,2.3-3.3V240c-1-0.8-1.8-1.8-1.8-3.2c0-2.3,1.8-3.7,4.3-3.7c2.5,0,4.1,1.5,4.1,3.7
			c0,1.3-0.8,2.3-1.8,3v0.1c1.3,0.7,2.3,1.7,2.3,3.5c0,2.1-1.9,3.7-4.8,3.7C106.4,247.1,104.4,245.6,104.4,243.4z M111,243.2
			c0-1.2-1.2-1.6-2.9-2.4c-0.6,0.5-1,1.3-1,2.1c0,1.2,0.9,1.9,2.1,1.9C110.2,244.9,111,244.3,111,243.2z M110.8,237
			c0-1-0.6-1.7-1.6-1.7c-0.8,0-1.5,0.5-1.5,1.6c0,1.1,0.9,1.6,2.3,2.2C110.5,238.3,110.8,237.7,110.8,237z"/>
		<path class="st2" d="M120.3,238.2c0-1.1,0.8-2,1.9-2c1.1,0,1.9,0.9,1.9,2c0,1.1-0.8,2-1.9,2C121.1,240.2,120.3,239.3,120.3,238.2z
			 M120.3,245.1c0-1.1,0.8-2,1.9-2c1.1,0,1.9,0.9,1.9,2c0,1.1-0.8,2-1.9,2C121.1,247.1,120.3,246.2,120.3,245.1z"/>
		<path class="st2" d="M130.5,245c3.4-3.3,5.9-5.6,5.9-7.5c0-1.3-0.7-2-1.9-2c-1,0-1.7,0.7-2.4,1.4l-1.7-1.7
			c1.3-1.4,2.6-2.1,4.5-2.1c2.7,0,4.5,1.7,4.5,4.3c0,2.3-2.1,4.7-4.3,7c0.7-0.1,1.6-0.2,2.3-0.2h2.7v2.6h-9.5V245z"/>
		<path class="st2" d="M141.7,240c0-4.6,1.9-7,4.8-7s4.8,2.4,4.8,7c0,4.6-1.9,7.1-4.8,7.1S141.7,244.6,141.7,240z M148.4,240
			c0-3.7-0.8-4.5-1.9-4.5c-1.1,0-1.9,0.8-1.9,4.5c0,3.7,0.8,4.7,1.9,4.7C147.6,244.6,148.4,243.7,148.4,240z"/>
		<path class="st2" d="M153.6,244.3h3v-7.8h-2.5v-1.9c1.5-0.3,2.4-0.6,3.4-1.2h2.3v11h2.5v2.5h-8.6V244.3z"/>
		<path class="st2" d="M163.9,245.2l1.4-2c0.8,0.7,1.8,1.4,2.9,1.4c1.4,0,2.3-0.7,2.3-2.1c0-1.4-0.9-2.1-2.1-2.1
			c-0.8,0-1.2,0.2-2,0.7l-1.4-0.9l0.4-6.8h7.7v2.6h-5l-0.2,2.5c0.5-0.2,0.9-0.3,1.5-0.3c2.3,0,4.3,1.3,4.3,4.2c0,3-2.3,4.7-5,4.7
			C166.4,247.1,164.9,246.2,163.9,245.2z"/>
	</g>
	<g>
		<path class="st2" d="M24.3,21.7h6.1v1.1h-4.8v3.3h4v1.1h-4v3.9h4.9v1.1h-6.3V21.7z"/>
		<path class="st2" d="M32.8,21.7h1.6l2,5.7c0.3,0.7,0.5,1.5,0.8,2.2h0.1c0.3-0.7,0.5-1.5,0.7-2.2l2-5.7h1.6v10.6h-1.3v-5.8
			c0-0.9,0.1-2.2,0.2-3.1h-0.1l-0.8,2.4l-2,5.5h-0.9l-2-5.5l-0.8-2.4h-0.1c0.1,0.9,0.2,2.2,0.2,3.1v5.8h-1.2V21.7z"/>
		<path class="st2" d="M44.5,21.7h3c2.4,0,4,0.8,4,3.1c0,2.2-1.6,3.3-3.9,3.3h-1.7v4.2h-1.3V21.7z M47.4,27c1.9,0,2.7-0.7,2.7-2.2
			c0-1.5-0.9-2-2.8-2h-1.5V27H47.4z"/>
		<path class="st2" d="M53.7,21.7H57c2.2,0,3.7,0.8,3.7,3c0,2.1-1.5,3.1-3.7,3.1h-2v4.5h-1.3V21.7z M56.8,26.8c1.6,0,2.6-0.7,2.6-2
			c0-1.4-0.9-1.9-2.6-1.9H55v3.9H56.8z M56.7,27.5l1.1-0.7l3.2,5.5h-1.5L56.7,27.5z"/>
		<path class="st2" d="M62.8,21.7h6.1v1.1h-4.8v3.3h4v1.1h-4v3.9h4.9v1.1h-6.3V21.7z"/>
		<path class="st2" d="M70.6,31l0.8-0.9c0.8,0.8,1.8,1.3,2.9,1.3c1.4,0,2.2-0.7,2.2-1.7c0-1.1-0.8-1.4-1.8-1.9l-1.5-0.7
			c-1-0.4-2.1-1.2-2.1-2.7c0-1.6,1.4-2.8,3.3-2.8c1.3,0,2.4,0.5,3.1,1.3l-0.7,0.9c-0.6-0.6-1.4-1-2.4-1c-1.2,0-2,0.6-2,1.5
			c0,1,0.9,1.4,1.8,1.8l1.5,0.7c1.2,0.5,2.2,1.3,2.2,2.8c0,1.7-1.4,3-3.6,3C72.8,32.5,71.5,31.9,70.6,31z"/>
		<path class="st2" d="M82.1,21.7h1.5l3.6,10.6h-1.4L84,26.4c-0.4-1.2-0.7-2.3-1.1-3.6h-0.1c-0.3,1.2-0.7,2.4-1,3.6l-1.9,5.9h-1.4
			L82.1,21.7z M80.4,28h4.9v1.1h-4.9V28z"/>
		<path class="st2" d="M91.3,27c0-3.4,2-5.5,4.7-5.5c1.3,0,2.3,0.6,2.9,1.3l-0.7,0.9c-0.6-0.6-1.3-1-2.2-1c-2,0-3.3,1.6-3.3,4.3
			c0,2.7,1.3,4.3,3.3,4.3c1,0,1.8-0.4,2.5-1.2l0.7,0.8c-0.8,1-1.9,1.5-3.2,1.5C93.3,32.5,91.3,30.5,91.3,27z"/>
		<path class="st2" d="M101.1,21.7h6.1v1.1h-4.8v3.3h4v1.1h-4v3.9h4.9v1.1h-6.3V21.7z"/>
		<path class="st2" d="M109.6,21.7h3.3c2.2,0,3.7,0.8,3.7,3c0,2.1-1.5,3.1-3.7,3.1h-2v4.5h-1.3V21.7z M112.7,26.8
			c1.6,0,2.6-0.7,2.6-2c0-1.4-0.9-1.9-2.6-1.9H111v3.9H112.7z M112.7,27.5l1.1-0.7l3.2,5.5h-1.5L112.7,27.5z"/>
		<path class="st2" d="M120.8,22.9h-3.2v-1.1h7.8v1.1h-3.2v9.5h-1.3V22.9z"/>
		<path class="st2" d="M127.2,21.7h1.3v10.6h-1.3V21.7z"/>
		<path class="st2" d="M131.5,21.7h6.1v1.1h-4.8v3.6h4v1.1h-4v4.7h-1.3V21.7z"/>
		<path class="st2" d="M139.4,21.7h1.3v10.6h-1.3V21.7z"/>
		<path class="st2" d="M143.1,27c0-3.4,2-5.5,4.7-5.5c1.3,0,2.3,0.6,2.9,1.3l-0.7,0.9c-0.6-0.6-1.3-1-2.2-1c-2,0-3.3,1.6-3.3,4.3
			c0,2.7,1.3,4.3,3.3,4.3c1,0,1.8-0.4,2.5-1.2l0.7,0.8c-0.8,1-1.9,1.5-3.2,1.5C145.1,32.5,143.1,30.5,143.1,27z"/>
		<path class="st2" d="M155.1,21.7h1.5l3.6,10.6h-1.4l-1.8-5.9c-0.4-1.2-0.7-2.3-1.1-3.6h-0.1c-0.3,1.2-0.7,2.4-1,3.6l-1.9,5.9h-1.4
			L155.1,21.7z M153.4,28h4.9v1.1h-4.9V28z"/>
		<path class="st2" d="M161.6,21.7h2.7c3.3,0,5,1.9,5,5.3c0,3.4-1.7,5.3-4.9,5.3h-2.7V21.7z M164.2,31.2c2.5,0,3.7-1.6,3.7-4.2
			c0-2.7-1.2-4.2-3.7-4.2H163v8.4H164.2z"/>
		<path class="st2" d="M173.6,21.7h1.5l3.6,10.6h-1.4l-1.8-5.9c-0.4-1.2-0.7-2.3-1.1-3.6h-0.1c-0.3,1.2-0.7,2.4-1,3.6l-1.9,5.9H170
			L173.6,21.7z M171.9,28h4.9v1.1h-4.9V28z"/>
	</g>
	<g id="g18_00000036942577126069562920000009150766284611222415_">
		<g id="g16_00000107557584786857361580000015252281728469043903_">
			<path id="path2_00000152251316355991488360000001371781350033200289_" class="st2" d="M33.3,174.7c0-1.8,1.1-3.2,3-4.3v-0.2
				c-1.1-0.7-1.9-1.9-1.9-3.6c0-1.5,1-3,2.4-4v-0.2c-1.5-1-2.8-3-2.8-5.5c0-5.1,4.2-7.7,8.7-7.7c1.2,0,2.3,0.2,3.3,0.5h7.7v4.6h-3.4
				c0.4,0.6,0.7,1.7,0.7,2.8c0,4.9-3.7,7.1-8.3,7.1c-0.8,0-1.6-0.1-2.6-0.4c-0.5,0.5-0.7,0.8-0.7,1.6c0,1,0.9,1.6,3.2,1.6h3.4
				c5.2,0,8.1,1.6,8.1,5.4c0,4.4-4.6,7.6-11.8,7.6C37.2,180.1,33.3,178.5,33.3,174.7z M48,173.5c0-1.3-1.1-1.6-3.2-1.6h-2.2
				c-1.5,0-2.3-0.1-3-0.3c-0.8,0.7-1.1,1.3-1.1,2.1c0,1.6,1.9,2.4,4.7,2.4C46,176.1,48,175,48,173.5z M45.5,157.1
				c0-2.2-1.2-3.4-2.9-3.4s-2.9,1.2-2.9,3.4c0,2.3,1.2,3.5,2.9,3.5S45.5,159.4,45.5,157.1z"/>
			<path id="path4_00000052821099076656635060000017659487516870301610_" class="st2" d="M55.1,149.9h5.1l0.5,3.7h0.2
				c1.6-2.8,3.9-4.2,6-4.2c1.2,0,1.9,0.2,2.5,0.4l-1,5.4c-0.8-0.2-1.4-0.3-2.3-0.3c-1.6,0-3.5,1-4.7,3.9v12.3h-6.3L55.1,149.9
				L55.1,149.9z"/>
			<path id="path6_00000025431577773232458180000013296036681680637570_" class="st2" d="M69.7,163v-13.1h6.3v12.3
				c0,3.1,0.8,4,2.6,4c1.6,0,2.5-0.7,3.8-2.3v-14h6.3v21.1h-5.1l-0.5-2.9h-0.2c-1.8,2.1-3.7,3.4-6.6,3.4
				C71.6,171.6,69.7,168.3,69.7,163z"/>
			<path id="path8_00000090290767356523557430000008995635807806659221_" class="st2" d="M91.8,149.9h5.1l0.5,2.1h0.2
				c1.7-1.5,3.8-2.6,6-2.6c5.1,0,8.3,4.2,8.3,10.8c0,7.3-4.3,11.4-8.9,11.4c-1.8,0-3.5-0.8-5-2.2l0.2,3.4v6.2h-6.3L91.8,149.9
				L91.8,149.9z M105.4,160.2c0-3.8-1.2-5.7-3.7-5.7c-1.3,0-2.4,0.6-3.6,1.9v8.7c1.1,1,2.3,1.3,3.4,1.3
				C103.6,166.5,105.4,164.6,105.4,160.2z"/>
			<path id="path10_00000150811382384647708510000005477166170764065190_" class="st2" d="M112.8,160.5c0-7,5-11.1,10.3-11.1
				s10.3,4.1,10.3,11.1c0,7-5,11.1-10.3,11.1S112.8,167.5,112.8,160.5z M126.9,160.5c0-3.7-1.3-6-3.9-6c-2.6,0-3.9,2.4-3.9,6
				s1.3,6,3.9,6C125.6,166.5,126.9,164.2,126.9,160.5z"/>
			<path id="path12_00000036249464821854891300000016045327157620570813_" class="st2" d="M136.4,143.3h7.9c8.5,0,14,4.2,14,13.8
				c0,9.6-5.5,14-13.6,14h-8.2V143.3z M143.8,166c4.7,0,7.9-2.3,7.9-9c0-6.6-3.2-8.7-7.9-8.7h-1.2V166H143.8z"/>
			<path id="path14_00000116222203906637880810000014260591713384611476_" class="st2" d="M161.9,143.3h6.3v27.8h-6.3V143.3z"/>
		</g>
	</g>
	<g>
		<path class="st2" d="M76.4,132.1c-2.6-5.8-5.1-11.6-7.7-17.5c-0.6-1.4-0.4-2.7,0.3-3.9c2-3.3,4.2-6.5,6.3-9.7
			c2.5-3.9,5.3-7.6,7.5-11.6c1-1.7,1.2-4,1.6-6c0.1-0.7-0.3-1.8-0.9-2.2c-2-1.5-4.1-2.9-6.3-4.1c-3.2-1.6-6.6-3-9.9-4.5
			c-0.6-0.3-1.1-0.6-1.7-1c-5.4-3.4-6.6-7.3-3.3-14c1.5-3.1,5-4.1,9.2-3.3c3.8,0.7,7.2,2.4,10.4,4.6c7.8,5.2,14.3,11.7,19,19.9
			c0.7,1.2,1.2,2.4,1.7,3.7c1,2.8,1,5.5-0.7,8.1c-3.9,6.1-7.9,12.1-11.9,18.2c-4.5,6.8-9.1,13.6-12.6,21.1c-0.3,0.7-0.5,1.5-0.8,2.2
			C76.6,132.1,76.5,132.1,76.4,132.1z"/>
		<path class="st2" d="M57.4,85.6c0.5-2.2,1.2-4.4,3-6.1c3.1-3,8-3.6,11.7-1.2c3.8,2.3,5.4,6.8,3.9,10.9c-1.4,4-5.5,6.6-9.7,6.2
			c-4.7-0.4-8-3.6-8.7-8c0-0.3-0.2-0.6-0.3-0.8C57.4,86.2,57.4,85.9,57.4,85.6z"/>
		<path class="st2" d="M127.3,53.3c1.6,3,3.2,5.7,4.6,8.5c1.3,2.8,2.3,5.7,3.4,8.5c0.7,1.7,0.5,3.4-0.5,4.9
			c-2.2,3.3-4.4,6.5-6.6,9.7c-2.3,3.4-4.9,6.7-6.9,10.2c-1.1,1.8-1.5,4.1-2,6.2c-0.4,1.8,0.4,3.2,1.9,4.1c2.3,1.3,4.6,2.5,6.9,3.6
			c3.6,1.7,7.2,3.2,10.9,4.8c2.2,1,3.6,2.7,3.6,5.1c0.1,2.3,0,4.8-0.6,7c-1.2,4.3-5.7,6.4-10.6,5.3c-3.7-0.8-7-2.7-10.1-4.9
			c-6.4-4.7-12.1-10.2-16.7-16.7c-1.4-2-2.6-4.3-3.5-6.6c-1.2-2.8-1-5.6,0.6-8.2c2.8-4.4,5.8-8.7,8.5-13.1
			c4.8-7.6,9.5-15.1,14.2-22.7C125.5,57.4,126.3,55.5,127.3,53.3z"/>
		<path class="st2" d="M144.1,97.6c0,5.2-4.2,9.3-9.5,9.3c-5.2,0-9.4-4.1-9.4-9.2c0-5.1,4.2-9.3,9.4-9.4
			C139.8,88.3,144.1,92.5,144.1,97.6z"/>
	</g>
</g>
</svg>
